<svg class="nola" xmlns="http://www.w3.org/2000/svg" viewBox="0 0 2400 1800" enable-background="new 0 0 2400 1800"><path fill="#85D3FF" d="M0 0h2400v1043.4H0z"/><linearGradient id="a" gradientUnits="userSpaceOnUse" x1="1199.268" y1="1079.845" x2="1199.268" y2="231.38"><stop offset=".007" stop-color="#004CFF" stop-opacity=".8"/><stop offset=".079" stop-color="#0D59FF" stop-opacity=".743"/><stop offset=".386" stop-color="#408DFF" stop-opacity=".495"/><stop offset=".652" stop-color="#66B3FF" stop-opacity=".28"/><stop offset=".866" stop-color="#7DCAFF" stop-opacity=".108"/><stop offset="1" stop-color="#85D3FF" stop-opacity="0"/></linearGradient><path fill="url(#a)" d="M0 231.4h2398.5v848.5H0z"/><path fill="#FFD6BB" d="M1212.8 323.8h197v17.1h-197z"/><path fill="#58BC62" d="M2398.5 719.9c-220.9-81.4-461.5-126.2-713.2-126.2-356.9 0-691.3 89.9-978.9 246.7v385.9c308.6-92.3 637.6-112.9 978.9-112.9 245.1 0 483.9 11.4 713.2 51.5v-445z"/><path fill="#50B55C" d="M2400 999.2c-354.8 99.7-770.5 57.8-1215 57.8-432.2 0-837.2 45.1-1185.4-49.6V675.1c373.7 55.7 772 68.2 1185.4 68.2 424.3 0 832.7-14.1 1215-72.7v328.6z"/><path fill="#FF7300" d="M1224.9 299.3h25.3v6h-25.3z"/><path fill="#2A3035" d="M2084.6 847.2s-26.5-47.5-29.9-120 19.3-80.7 35.2-100.6c15.9-19.9 28.6-49.8 28.6-49.8l-1-14.8-9.4.6-15.5 1s27.4-.3 36.5-17.1c9.1-16.8 38.7-74.6 49.2-78 10.6-3.4-43.3 18-55.5 36.4s-70.9 22.4-70.9 22.4l-16.3 38.8s-13.6 18.4-14.1-9.9c-.5-28.3-3.2-47-3.2-47l10.4-7.4v-20.2l-7.3-9 6.1-9.8 9.9-12.8s-1.1-16.1 9.1-26.2c10.1-10.1 65.1-35.3 65.1-35.3s4.5-13.8 1.2-23 28.8-53.1 71.4-41.1l4-31.1s-50.2 5.8-68.2 19.1-31 41.1-31 41.1l1.2 17.4s-43.5 15-56.4 23.9-28.3 41-28.3 41l-23.2-3.9s-10.4-14.1-1.7-25.5c8.7-11.4 49.5-66.6 49.9-81.5s-.5-68.7-5-75.2-7.4-30.5 14.2-29.2c21.6 1.3 38.8-24.1 36.5-38.8s-11-42.4-11-42.4l-1.9-18.7 24.9-1.6 10.2 11.5s13.1-6.3 8-22.1 18.3-29.5 18.3-29.5l30.7-24.9-40.5 18.9s-29.5 22.2-22.1 32.5l-39 1.2s-20.2 0-10.7 20.9 22.5 55.1 6.8 62.9c-15.7 7.8-38.4 10.6-38.4 10.6s-21.1 6.8-15.3 33.4 12 59.9-1.9 93.1-32.6 57.4-32.6 57.4l-18.2 10.6 3.1 47s-16.5 15.9 2.4 36.2c18.9 20.3 35 39.8 32.7 66.7-2.3 27-10.7 42.3 12.6 69.1l-7.4 51.7-18.2-9.6-4-100.8-22.5-59.2-19.4-4.1 3.5-29.2s-7.2-6.9-19.3-6.1c-12.1.8-24.3-21.3-37.7-20.4l26.7-4.5s15.3-13.1-7.3-29.2l-44.3 2.9-2.1-32.2s5.6-17.9-2-30.9-9-34.4-21.8-44.4c-12.8-9.9 29.3-66.6 29.3-66.6s9-27.5 38.4-30.8 61.5-28.3 61.5-28.3l36.8 5.7 40.3-22.9-42.2 13.6-36.9-7 43.5-19 42.5-45.9-68.1-30.6 50.6 31.7-31.5 33.1-22.5 6.9-20.8 12.2 12.2-19.7-12.2-20.8-14.4 6.3 9.1 15.6-10.9 18.2-19.4 12.1-5.7 15.2-47.9 9.9 6.4-26 18.4-6.6s22.1-32.5 18.8-61.9c0 0 40.3-22.9 54.4-53.5 0 0-38.3 32.2-71.4 41.1 0 0 2.8 42.9-10 53.2s-29.1 8.7-32.2 42.6-6.2 48.9-6.2 48.9l-15.6 18.6-4.4-67.1-2.4-36.2 7.9-34.2-1-14.8 18.3-9.3-11.5-11.4s17.5-21.4-8.7-30.4c-26.2-9.1-32.7-4.6-32.7-4.6l29.4 16.9-7.2 14 3.5 11.9-9.1 4.6 4 20-13.9 34.6-1.6-24.2 3.7-46.1L1771 109l1.9 28.2-15.3-7.1-1.2-18.8 12.4-37.2-17.3-37.3s17.8 45.4-6.6 63.2l1.6 24.2-21.4 2.8-27.4-26.5s-4.6-29.3-36.1-36.7c-31.5-7.4-30-25-30-25s-4.2 17.8 24 37.5 30.7 35.7 30.7 35.7l28.9 29.1 32.3-.8 27.9 34.6-5.6 58.3 5.5 22.5-21.3-16.1s-10.3-33-35.8-31.3c-25.5 1.7-46.4 11.2-66.1-1-19.7-12.2-35.3-44.8-35.3-44.8l15.2-54.9-27.3 55.7 8.1 21s-16.2-20.5-66.9-13.1c0 0 43-1.5 59.6 24.4 16.5 25.9 31.6 28.9 31.6 28.9l-40.5-1.4 48.3 17s42.8-5.5 58.8-7.9c16-2.4 35.9 12.5 47.9 31.9 12.1 19.4 18 47.3 18 47.3l27.6 30.5 4.8 72.5-18.8 1.2s-22.8 1.5-34.1 34.6l-16.1 1.1s-16.6-27.2-16.9-51.5c-.3-24.2.7-51.3 18.2-71.3s-29.5-38.5-29.5-38.5l2.6-21.7-16.5-25.9 4.5 26.7-5 25.9 29.6 19.6s-2.1 29.8-16.9 29.4 9.6 84.3 9.6 84.3-25.8-22.6-40.2 4l6.3 13.1s25.1-8.4 14.7 19.2l-47.9 9.9-54.9-75.9s10.2-29 10.7-42.5-15-3.1-11.3-28.9c0 0-17.3 3.8-13-32.8 0 0-23.5-29.1-7.5-72.3 0 0-21.6 20.3-4.6 73.1 0 0-14.4 26.6-.2 37.8l-21.1 27s34.2-13 35.3 4.4c1.2 17.4-7.8 24.8-7.8 24.8l7.5 31.9s18.9 20.3-4.1 40.7c-22.9 20.4 10.2 11.5 10.2 11.5l23.4-13.7s12.5 26.1 22.4 33.6c9.9 7.4 40.8-16.1 51.9-11.4 11.1 4.7 43.1.7 43.1.7s22.6-10.2 48.4-28.1c25.8-17.9 76.9-5.1 76.9-5.1l54.8 80.7s34.1 31.7 25.1 58.3-55.8 33-55.8 33-52.8-43.7-65.5-52.3l-16.7 11.9 12 18.1s-22.5 5.5-29.9-3.4c-7.3-9-1.1 19.5-31.7 25.6-30.6 6.1-38.3-8.2-72.6 2.1-34.4 10.4-50.1 22.9-50.1 22.9l-59.6-25.7s31.9 28.3 53.9 35c22 6.6 33.9-11.1 44.7-10.5 10.8.6 90.6 4.8 120.6-10.7s30.9 18.2 30.9 18.2l76 38.1s93.9 43.7 88.7 128.9c-5.2 85.3-77.3 75.2-91.3 86.9-14.1 11.7-27.2 36.8-27.2 36.8s39-21.4 63.2-23c24.2-1.6 81.2-36.4 93.5-53.4s70.7-19.6 70.7-19.6z"/><path fill="#293E4C" d="M2399 611.3c-7.1-1.1-14.4-2.2-21.5-3.4-35.4-5.7-33.9-23.4-65-25.4s-43.1 20.4-49.2 30.2c-6.1 9.8-29.2 7.3-29.2 7.3l9.5-19.5-18.2-9.6c-11.5 10.2-58 60.4-58 60.4l28.1-84.1s39.5-55.2 67.4-40.8c27.9 14.3 41.4-5.4 41.4-5.4s21.6-.1 31.9-6.2c10.4-6.1 47.6-13.9 56.5-22.6 2-1.9 3.9-4.7 5.8-8v-51.1l-23 42.7-48.8-3.5c-13.9-26 12.1-21 12.1-21l4.5-13.8c-17.8-24.4-40.3 1.3-40.3 1.3s13.1-87.1-1.6-84.8-20.6-26.9-20.6-26.9l26.8-23.3-8.4-25.1.9-27-13 27.8 5.4 21.2s-44.2 24.5-24.2 42c20 17.5 24.5 44.2 27.4 68.3s-10 53.2-10 53.2l-16.1 1.1c-15.5-31.3-38.4-29.8-38.4-29.8l-18.8 1.2-4.8-72.5 23.4-33.9s2.2-28.4 11.6-49.3c9.4-20.8 27.1-38.2 43.3-37.9s59.3.1 59.3.1l45.6-23.2-40 6.7s14.5-5 27.5-32.8c4.3-9.2 11.9-15.8 20.1-20.6v-7.2c-22.1 6.3-28.8 17.6-28.8 17.6l5.3-21.9-34.4-51.6 22.3 52.4s-11.2 34.4-29.1 49.1c-17.9 14.7-39.9 8-65.4 9.7-25.5 1.7-31.3 35.8-31.3 35.8l-19 18.8 2.5-23.1-13.2-57.1 23.1-37.9 32.1-3.5 24.8-32.6s.3-16.2 25.7-39.4 18.9-40.3 18.9-40.3 3.8 17.3-26.4 28.7c-30.2 11.4-31 41.1-31 41.1l-23.6 29.9-21.6.1-1.6-24.2C2201.3 103.3 2213 56 2213 56l-12.2 39.3 17.2 35.3 1.2 18.8-14.2 9-1.9-28.2-21.4-39 9.7 45.2 1.6 24.2-18.3-32.5 1.4-20.3-9.7-3.4 1.9-12.3-8.9-12.9 26.9-20.6s-7-3.6-31.8 8.8-4.7 31.3-4.7 31.3l-9.9 12.8 19.3 6.8 1 14.8 12.3 32.9 2.4 36.2 4.4 67.1-17.9-16.3s-5-14.5-12.6-47.7-23.5-29.4-37.6-38c-14-8.5-16.9-51.5-16.9-51.5-34-4.5-76.2-31.4-76.2-31.4 18.1 28.5 61 45.8 61 45.8.6 29.6 26.8 58.9 26.8 58.9l19.1 4.1 9.7 25-48.8-3.5-7.7-14.3-20.8-9.4-13.2-16.6 7-16.6-15.1-4.4-9.3 22.2 14.7 17.9-22.2-9.3-23.2-3.9-35.6-28.7 46-38.1-63.5 39.2 48.1 40 45.7 13.2-35.6 11.8-43.7-7.9 42.9 17.4 35.7-10.4s35.1 20.6 64.7 20 42.1 25.5 42.1 25.5 49.2 50.7 37.8 62.2-10 33-15.8 46.9c-5.8 13.9 2 30.9 2 30.9l2.1 32.2-44.3 2.9c-20.3 18.9-3.4 29.9-3.4 29.9l27 .9c-13.4.9-22.7 24.4-34.7 25.2s-18.3 8.6-18.3 8.6l7.3 28.5-18.7 6.6-14.5 61.6 9.3 100.5-16.7 11.9-14.1-50.3c19.6-29.6 9.2-43.7 3.5-70.2-5.8-26.4 7.6-47.8 23.7-70.5 16-22.6-2.4-36.2-2.4-36.2l-3.1-47-19.4-8.2s-21.6-21.5-39.9-52.6c-18.2-31.1-16.4-65-14.2-92.1 2.3-27.1-19.6-31.1-19.6-31.1s-22.9.2-39.5-5.5-8.1-41.2-1.5-63.3c6.6-22-13.4-19.3-13.4-19.3l-38.8 3.9c6-11.2-26.2-29.3-26.2-29.3l-42.7-13.4 33.7 20.7s25 10.5 22 26.9 10.8 20.9 10.8 20.9l8.6-12.7 24.9-1.6.6 18.8s-4.9 28.6-5.3 43.5c-.4 14.9 20 37.8 41.3 33.7 21.3-4.1 21.5 20.1 18 27.1-3.6 7 2.6 60.5 5 75.2 2.3 14.7 50.1 64.1 60.2 74.2 10.1 10.1 1.7 25.5 1.7 25.5l-22.5 6.9s-19.5-29.7-33.4-36.9c-14-7.2-59-16.3-59-16.3l-1.2-17.4s-30.8-18.8-50.3-29.6-47.8 13.2-47.8 13.2c40.6-17.5 78.3 21.8 76.2 31.4s4.2 22.6 4.2 22.6 57.8 17.8 69.1 26.4c11.4 8.7 12.4 24.8 12.4 24.8l11.5 11.4 7.3 9-6.1 9.8 2.7 20 11.3 6s-.2 18.9 3 47-12.7 11.6-12.7 11.6l-56.9 5.1-15.5 1-9.4.6 1 14.8s36.9 7 55.2 24.7c18.4 17.7 30 41.2 36.1 113.5 6.1 72.4-48.8 127.2-48.8 127.2s85.1-7 99.6 8.3c14.5 15.2 75.6 42.2 99.7 40.6s65.7 14.5 65.7 14.5-16.4-23.2-31.8-32.9c-15.5-9.8-85.6 9.7-101.9-74.1s71-139.5 71-139.5l70.3-47.8s-3.6-33.5 28.2-22.1c31.8 11.4 110.3-3.2 121-5.3 4.5-.9 9.3 3 14.9 7.1v-42.5z"/><path fill="#FF7300" d="M1374.4 299.3h25.3v6h-25.3zM1200.4 339.5h221.8v412h-221.8z"/><g fill="#28475B"><circle cx="1227.3" cy="340.1" r="7.8"/><circle cx="1255.2" cy="340.1" r="7.8"/><circle cx="1283.1" cy="340.1" r="7.8"/><circle cx="1311.1" cy="340.1" r="7.8"/><circle cx="1339" cy="340.1" r="7.8"/><circle cx="1366.9" cy="340.1" r="7.8"/><circle cx="1394.8" cy="340.1" r="7.8"/></g><path fill="#FF9D5A" d="M1409.8 387h-197l-8.4-17h213.8zM1409.8 540.1h-197l-8.4-17h213.8z"/><path fill="#2A3035" d="M1263 353.7c0 8.4-9.7 15.2-21.7 15.2s-21.7-6.8-21.7-15.2 21.7-15.2 21.7-15.2 21.7 6.8 21.7 15.2zM1291 353.7c0 8.4-9.7 15.2-21.7 15.2s-21.7-6.8-21.7-15.2 21.7-15.2 21.7-15.2 21.7 6.8 21.7 15.2zM1319.1 353.7c0 8.4-9.7 15.2-21.7 15.2s-21.7-6.8-21.7-15.2 21.7-15.2 21.7-15.2 21.7 6.8 21.7 15.2zM1347.1 353.7c0 8.4-9.7 15.2-21.7 15.2s-21.7-6.8-21.7-15.2 21.7-15.2 21.7-15.2 21.7 6.8 21.7 15.2zM1375.1 353.7c0 8.4-9.7 15.2-21.7 15.2s-21.7-6.8-21.7-15.2 21.7-15.2 21.7-15.2 21.7 6.8 21.7 15.2zM1403.2 353.7c0 8.4-9.7 15.2-21.7 15.2s-21.7-6.8-21.7-15.2 21.7-15.2 21.7-15.2 21.7 6.8 21.7 15.2zM1218.4 366.6v31.9c0-8.5 9.7-13.6 21.7-13.6s21.7 5.2 21.7 13.6v-31.9h-43.4zM1361.1 366.6v31.9c0-8.5 9.7-13.6 21.7-13.6s21.7 5.2 21.7 13.6v-31.9h-43.4zM1289.6 366.6v31.9c0-8.5 9.7-13.6 21.7-13.6s21.7 5.2 21.7 13.6v-31.9h-43.4zM1434.3 370h-246l-12.4-23.8h270.8zM1434.3 523.1h-246l-6.8-15.2h259.6z"/><path fill="#FFBE8D" d="M1227.3 305.3h20.2v18.6h-20.2zM1376.4 305.3h20.2v18.6h-20.2z"/><path fill="#fff" d="M1415.9 420c-8.1.3-14.5 2.6-15.4 5.6h-.1v82.3h15.5V420zM1350 420c8.1.3 14.5 2.6 15.4 5.6h.1v82.3H1350V420zM1344.2 420c-8.1.3-14.5 2.6-15.4 5.6h-.1v82.3h15.5V420zM1278.4 420c8.1.3 14.5 2.6 15.4 5.6h.1v82.3h-15.5V420zM1272.5 420c-8.1.3-14.5 2.6-15.4 5.6h-.1v82.3h15.5V420zM1206.6 420c8.1.3 14.5 2.6 15.4 5.6h.1v82.3h-15.5V420z"/><path fill="#2A3035" d="M1274.6 364.7h9.2v155h-9.2zM1200 473.6h218.9v4.5H1200zM1417.6 364.7h9.2v387.1h-9.2zM1338.6 364.7h9.2v155h-9.2z"/><path fill="#85D3FF" d="M1222.3 451.8h15.5v21.8h-15.5zM1241.3 451.8h15.5v21.8h-15.5zM1222.3 482h15.5v21.8h-15.5zM1241.3 482h15.5v21.8h-15.5zM1294 451.8h15.5v21.8H1294zM1313 451.8h15.5v21.8H1313zM1294 482h15.5v21.8H1294zM1313 482h15.5v21.8H1313zM1365.6 451.8h15.5v21.8h-15.5zM1384.6 451.8h15.5v21.8h-15.5zM1365.6 482h15.5v21.8h-15.5zM1384.6 482h15.5v21.8h-15.5z"/><g fill="#85D3FF"><path d="M1237.8 420c-8.1.3-14.5 2.6-15.4 5.6h-.1v21.8h15.5V420zM1241.3 420c8.1.3 14.5 2.6 15.4 5.6h.1v21.8h-15.5V420z"/></g><g fill="#85D3FF"><path d="M1309.6 420c-8.1.3-14.5 2.6-15.4 5.6h-.1v21.8h15.5V420zM1313 420c8.1.3 14.5 2.6 15.4 5.6h.1v21.8H1313V420z"/></g><g fill="#85D3FF"><path d="M1381.1 420c-8.1.3-14.5 2.6-15.4 5.6h-.1v21.8h15.5V420zM1384.6 420c8.1.3 14.5 2.6 15.4 5.6h.1v21.8h-15.5V420z"/></g><path fill="#2A3035" d="M1200 499.3h218.9v4.5H1200z"/><g fill="#2A3035"><path d="M1219.1 476h1.7v24.5h-1.7zM1224.7 476h1.7v24.5h-1.7zM1230.3 476h1.7v24.5h-1.7zM1235.9 476h1.7v24.5h-1.7zM1241.4 476h1.7v24.5h-1.7zM1247 476h1.7v24.5h-1.7zM1252.6 476h1.7v24.5h-1.7zM1258.2 476h1.7v24.5h-1.7z"/></g><g fill="#2A3035"><path d="M1290.9 476h1.7v24.5h-1.7zM1296.5 476h1.7v24.5h-1.7zM1302.1 476h1.7v24.5h-1.7zM1307.7 476h1.7v24.5h-1.7zM1313.3 476h1.7v24.5h-1.7zM1318.8 476h1.7v24.5h-1.7zM1324.4 476h1.7v24.5h-1.7zM1330 476h1.7v24.5h-1.7z"/></g><g fill="#2A3035"><path d="M1362.4 476h1.7v24.5h-1.7zM1368 476h1.7v24.5h-1.7zM1373.6 476h1.7v24.5h-1.7zM1379.2 476h1.7v24.5h-1.7zM1384.8 476h1.7v24.5h-1.7zM1390.4 476h1.7v24.5h-1.7zM1396 476h1.7v24.5h-1.7zM1401.5 476h1.7v24.5h-1.7z"/></g><path fill="#fff" d="M1415.9 652.1c-8.1.3-14.5 2.6-15.4 5.6h-.1V740h15.5V652.1zM1350 652.1c8.1.3 14.5 2.6 15.4 5.6h.1V740H1350V652.1zM1344.2 652.1c-8.1.3-14.5 2.6-15.4 5.6h-.1V740h15.5V652.1zM1278.4 652.1c8.1.3 14.5 2.6 15.4 5.6h.1V740h-15.5V652.1z"/><path fill="#2A3035" d="M1338.6 515.9h9.2v236h-9.2z"/><path fill="#85D3FF" d="M1294 683.9h15.5v21.8H1294zM1313 683.9h15.5v21.8H1313zM1294 709.5h15.5v21.8H1294zM1313 709.5h15.5v21.8H1313zM1365.6 683.9h15.5v21.8h-15.5zM1384.6 683.9h15.5v21.8h-15.5zM1365.6 709.5h15.5v21.8h-15.5zM1384.6 709.5h15.5v21.8h-15.5z"/><g fill="#85D3FF"><path d="M1309.6 652.1c-8.1.3-14.5 2.6-15.4 5.6h-.1v21.8h15.5v-27.4zM1313 652.1c8.1.3 14.5 2.6 15.4 5.6h.1v21.8H1313v-27.4z"/></g><g fill="#85D3FF"><path d="M1381.1 652.1c-8.1.3-14.5 2.6-15.4 5.6h-.1v21.8h15.5v-27.4zM1384.6 652.1c8.1.3 14.5 2.6 15.4 5.6h.1v21.8h-15.5v-27.4z"/></g><path fill="#FF9D5A" d="M1210.3 613.9h60.2v137.6h-60.2z"/><path fill="#fff" d="M1210 633.5h60.3v118.2H1210z"/><path fill="#85D3FF" d="M1217.5 637.7h45.4v19.1h-45.4z"/><path fill="#2A3035" d="M1195.5 364.7h9.2v387.1h-9.2zM1274.6 515.9h9.2v236h-9.2zM1200 731h218.9v9.3H1200zM1217.5 660.5h45.4v91.4h-45.4z"/><circle fill="#FFBE8D" cx="1226.2" cy="706.4" r="4"/><path fill="#2A3035" d="M1383.3 556.1v-34.4h-.8v34.4c-2.5 0-4.4.4-4.4.9v1.7h9.7V557c0-.5-2-.8-4.5-.9z"/><path fill="#FFD6BB" d="M1389.7 559.1c0-.7-3.1-1.3-6.9-1.3s-6.9.6-6.9 1.3l-.1 19h13.9v-19z"/><path fill="#2A3035" d="M1311.9 556.1v-34.4h-.8v34.4c-2.5 0-4.4.4-4.4.9v1.7h9.7V557c-.1-.5-2.1-.8-4.5-.9zM1240.7 556.1v-34.4h-.8v34.4c-2.5 0-4.4.4-4.4.9v1.7h9.7V557c0-.5-2-.8-4.5-.9z"/><path fill="#005CBF" d="M0 999.8h2400v458.8H0z"/><path fill="#2A3035" d="M1790.8 815.1v6.2c5.9.4 10.8 4.8 11.8 10.6h4.5v-16.7h-16.3zM1826.3 757.1c.3-.6.8-1.7 1.2-1.6.3.1.5.8.5.8l.9-5.1.4-1.6-2.4 3.1-5.4 12.1.6.2-2.4 6.5 1.1 1.2 3.5-6.8 4.7-6.2s-.9-3.3-.6-1.8c.3 1.5-1.2 2.2-2.2 3.3-1.1 1.1-1.9 2.9-2.4 3.8-.3.5-.5.4-.6.2-.1-1.2 2.8-7.5 3.1-8.1zM1790.8 847.6v6.2c5.9.4 10.8 4.8 11.8 10.6h4.5v-16.7h-16.3zM1818 810.5h9.7v121.2h-9.7zM1821.6 749.1s.7-3.9 2.1-2.2 1.3 2.2 1.3 2.2-3.3 8.1-3.4 8.9c-.1.7-.5.5-.6-.2-.1-.7-.1-2.8-.1-2.8l-2.2 16.3h.6l6.8-21.8-2.2-4.9-.5-3.5s-.2-.2-.9.4l-.9 7.6zM1802.5 815.2h21.6v116.5h-21.6z"/><path fill="#3F718C" d="M1819 847.9c1.8 0 3.6.6 5.2 1.7v-34.3h-21.6v55c3-13.3 9.2-22.4 16.4-22.4z"/><path fill="#2A3035" d="M1833 750.4c-.7-.4-1.7.1-2.2 1l-1.3 2.5c-.2-.5-.4-1-.4-1.5-.1-.4 0-.9 0-1.3v-.1l.5-1.6c-.7 1.2-1.2 2.5-1.5 3.9-.4 2.2-.1 4.4.8 6.3.1.2 2.8-2.1 2.8-2.1l1.1-1.2c-.4-.1-.7-.2-1.1-.3l1.7-3.3c.5-.9.3-2-.4-2.3zM1818 769.6l.3 2.1-1.3.3-1.5-8.2-5-11.8-.3-2.9 1.7-1.7 3 9.4s.9 1.8.9-.3V750s-.1-4-2.2-2.9c-2.1 1.2-1.2-.8-1.2-.8l-.1-6.9 3.5 3.5 1.6 17.9.6 8.8zM1734.4 792c-2.8 0-5.1 2-5.6 4.6.2 1.1.7 2 1.5 2.8.1.2.4.3.7.3.4 0 .8-.4.8-.8 0-.2 0-.3-.1-.4l.8-.7 4.4.6v6h4.6v-9.8h-2.2c-1.1-1.5-2.9-2.6-4.9-2.6zM1748.4 792c2.8 0 5.1 2 5.6 4.6-.2 1.1-.7 2-1.5 2.8-.1.2-.4.3-.7.3-.4 0-.8-.4-.8-.8 0-.2 0-.3.1-.4l-.8-.7-4.4.6v6h-4.6v-9.8h2.2c1.1-1.5 2.9-2.6 4.9-2.6z"/><path fill="#365970" d="M1734.8 795.1c1.7 0 3.1 1.1 3.5 2.7.1-.3.1-.6.1-1 0-2-1.6-3.6-3.6-3.6s-3.6 1.6-3.6 3.6c0 .3 0 .7.1 1 .4-1.6 1.8-2.7 3.5-2.7z"/><path fill="#2A3035" d="M1734.8 800.4c1.7 0 3.1-1.1 3.5-2.7-.4-1.5-1.8-2.7-3.5-2.7s-3.1 1.1-3.5 2.7c.4 1.6 1.8 2.7 3.5 2.7z"/><path fill="#365970" d="M1748 795.1c1.7 0 3.1 1.1 3.5 2.7.1-.3.1-.6.1-1 0-2-1.6-3.6-3.6-3.6s-3.6 1.6-3.6 3.6c0 .3 0 .7.1 1 .4-1.6 1.8-2.7 3.5-2.7z"/><path fill="#2A3035" d="M1748 800.4c1.7 0 3.1-1.1 3.5-2.7-.4-1.5-1.8-2.7-3.5-2.7s-3.1 1.1-3.5 2.7c.4 1.6 1.8 2.7 3.5 2.7z"/><path fill="#365970" d="M1741.4 759.6l-6 30.1 6 6.7zM1748.4 789.6c-2.1 0-3.8 1.1-4.9 2.7h-4.4c-1-1.6-2.8-2.7-4.9-2.7-3.2 0-5.7 2.6-5.7 5.7 0 .4 0 .8.1 1.2.5-2.6 2.9-4.6 5.6-4.6 2 0 3.8 1.1 4.8 2.7.2.4.3.8.3 1.2v.8c.1.9.9 1.6 1.9 1.6 1 0 1.7-.7 1.9-1.6V795.9c0-.5.1-.9.3-1.2 1-1.6 2.8-2.7 4.8-2.7 2.8 0 5.1 2 5.6 4.6.1-.4.1-.8.1-1.2.3-3.2-2.3-5.8-5.5-5.8z"/><path fill="#2A3035" d="M1741.4 796.4s.8-2.1 2.2-4.1 2.8-2.4 3.8-2.6l-6-30.2v36.9z"/><path fill="#365970" d="M1737.2 804.4h8.5c.9.1 1.6.8 1.6 1.7v.3c.2-.3.4-.7.4-1.1 0-1-.7-1.7-1.7-1.8h-9c-1 0-1.8.8-1.8 1.8 0 .4.1.8.4 1.1v-.3c-.2-.9.6-1.7 1.6-1.7zM1747.1 814.3v-1.4l-1.6-1.8v-4.3h-8.4v4.3l-1.6 1.8-2.8 3.2h17.3z"/><path fill="#2A3035" d="M1736.9 807.1h9c.5 0 1-.3 1.3-.7v-.3c0-.9-.7-1.6-1.6-1.7h-8.5c-.9 0-1.7.8-1.7 1.7v.3c.4.4.9.7 1.5.7zM1737.1 806.8l3.2 3 4.1-3zM1743.8 814.3h1.3l-1-1.9zM1701.9 792c-2.8 0-5.1 2-5.6 4.6.2 1.1.7 2 1.5 2.8.1.2.4.3.7.3.4 0 .8-.4.8-.8 0-.2 0-.3-.1-.4l.8-.7 4.4.6v6h4.6v-9.8h-2.2c-1.1-1.5-2.9-2.6-4.9-2.6zM1715.9 792c2.8 0 5.1 2 5.6 4.6-.2 1.1-.7 2-1.5 2.8-.1.2-.4.3-.7.3-.4 0-.8-.4-.8-.8 0-.2 0-.3.1-.4l-.8-.7-4.4.6v6h-4.6v-9.8h2.2c1-1.5 2.8-2.6 4.9-2.6z"/><path fill="#365970" d="M1702.3 795.1c1.7 0 3.1 1.1 3.5 2.7.1-.3.1-.6.1-1 0-2-1.6-3.6-3.6-3.6s-3.6 1.6-3.6 3.6c0 .3 0 .7.1 1 .4-1.6 1.8-2.7 3.5-2.7z"/><path fill="#2A3035" d="M1702.3 800.4c1.7 0 3.1-1.1 3.5-2.7-.4-1.5-1.8-2.7-3.5-2.7s-3.1 1.1-3.5 2.7c.4 1.6 1.8 2.7 3.5 2.7z"/><path fill="#365970" d="M1715.5 795.1c1.7 0 3.1 1.1 3.5 2.7.1-.3.1-.6.1-1 0-2-1.6-3.6-3.6-3.6s-3.6 1.6-3.6 3.6c0 .3 0 .7.1 1 .4-1.6 1.8-2.7 3.5-2.7z"/><path fill="#2A3035" d="M1715.5 800.4c1.7 0 3.1-1.1 3.5-2.7-.4-1.5-1.8-2.7-3.5-2.7s-3.1 1.1-3.5 2.7c.4 1.6 1.8 2.7 3.5 2.7z"/><path fill="#365970" d="M1708.9 759.6l-6 30.1 6 6.7zM1715.9 789.6c-2.1 0-3.8 1.1-4.9 2.7h-4.4c-1-1.6-2.8-2.7-4.9-2.7-3.2 0-5.7 2.6-5.7 5.7 0 .4 0 .8.1 1.2.5-2.6 2.9-4.6 5.6-4.6 2 0 3.8 1.1 4.8 2.7.2.4.3.8.3 1.2v.8c.1.9.9 1.6 1.9 1.6 1 0 1.7-.7 1.9-1.6V795.9c0-.5.1-.9.3-1.2 1-1.6 2.8-2.7 4.8-2.7 2.8 0 5.1 2 5.6 4.6.1-.4.1-.8.1-1.2.2-3.2-2.3-5.8-5.5-5.8z"/><path fill="#2A3035" d="M1708.9 796.4s.8-2.1 2.2-4.1 2.8-2.4 3.8-2.6l-6-30.2v36.9z"/><path fill="#365970" d="M1704.6 804.4h8.5c.9.1 1.6.8 1.6 1.7v.3c.2-.3.4-.7.4-1.1 0-1-.7-1.7-1.7-1.8h-9c-1 0-1.8.8-1.8 1.8 0 .4.1.8.4 1.1v-.3c-.1-.9.7-1.7 1.6-1.7zM1714.6 814.3v-1.4l-1.7-1.8v-4.3h-8.3v4.3l-1.7 1.8-2.7 3.2h17.3z"/><path fill="#2A3035" d="M1704.4 807.1h9c.5 0 1-.3 1.3-.7v-.3c0-.9-.7-1.6-1.6-1.7h-8.5c-.9 0-1.7.8-1.7 1.7v.3c.4.4.9.7 1.5.7zM1704.6 806.8l3.2 3 4.1-3zM1711.3 814.3h1.3l-1-1.9zM1669.8 792c-2.8 0-5.1 2-5.6 4.6.2 1.1.7 2 1.5 2.8.1.2.4.3.7.3.4 0 .8-.4.8-.8 0-.2 0-.3-.1-.4l.8-.7 4.4.6v6h4.6v-9.8h-2.2c-1-1.5-2.8-2.6-4.9-2.6zM1683.9 792c2.8 0 5.1 2 5.6 4.6-.2 1.1-.7 2-1.5 2.8-.1.2-.4.3-.7.3-.4 0-.8-.4-.8-.8 0-.2 0-.3.1-.4l-.8-.7-4.4.6v6h-4.6v-9.8h2.2c1-1.5 2.8-2.6 4.9-2.6z"/><path fill="#365970" d="M1670.3 795.1c1.7 0 3.1 1.1 3.5 2.7.1-.3.1-.6.1-1 0-2-1.6-3.6-3.6-3.6s-3.6 1.6-3.6 3.6c0 .3 0 .7.1 1 .4-1.6 1.8-2.7 3.5-2.7z"/><path fill="#2A3035" d="M1670.3 800.4c1.7 0 3.1-1.1 3.5-2.7-.4-1.5-1.8-2.7-3.5-2.7s-3.1 1.1-3.5 2.7c.4 1.6 1.8 2.7 3.5 2.7z"/><path fill="#365970" d="M1683.5 795.1c1.7 0 3.1 1.1 3.5 2.7.1-.3.1-.6.1-1 0-2-1.6-3.6-3.6-3.6s-3.6 1.6-3.6 3.6c0 .3 0 .7.1 1 .4-1.6 1.8-2.7 3.5-2.7z"/><path fill="#2A3035" d="M1648.1 928.5h-8.4l1.1-109.3h6.7zM1683.5 800.4c1.7 0 3.1-1.1 3.5-2.7-.4-1.5-1.8-2.7-3.5-2.7s-3.1 1.1-3.5 2.7c.4 1.6 1.8 2.7 3.5 2.7z"/><path fill="#365970" d="M1676.9 759.6l-6 30.1 6 6.7zM1683.9 789.6c-2.1 0-3.8 1.1-4.9 2.7h-4.4c-1-1.6-2.8-2.7-4.9-2.7-3.2 0-5.7 2.6-5.7 5.7 0 .4 0 .8.1 1.2.5-2.6 2.9-4.6 5.6-4.6 2 0 3.8 1.1 4.8 2.7.2.4.3.8.3 1.2v.8c.1.9.9 1.6 1.9 1.6 1 0 1.7-.7 1.9-1.6V795.9c0-.5.1-.9.3-1.2 1-1.6 2.8-2.7 4.8-2.7 2.8 0 5.1 2 5.6 4.6.1-.4.1-.8.1-1.2.2-3.2-2.4-5.8-5.5-5.8z"/><path fill="#2A3035" d="M1676.9 796.4s.8-2.1 2.2-4.1c1.3-2 2.8-2.4 3.8-2.6l-6-30.2v36.9z"/><path fill="#365970" d="M1672.6 804.4h8.5c.9.1 1.6.8 1.6 1.7v.3c.2-.3.4-.7.4-1.1 0-1-.7-1.7-1.7-1.8h-9c-1 0-1.8.8-1.8 1.8 0 .4.1.8.4 1.1v-.3c-.1-.9.7-1.7 1.6-1.7zM1682.6 814.3v-1.4l-1.7-1.8v-4.3h-8.3v4.3l-1.7 1.8-2.7 3.2h17.3z"/><path fill="#2A3035" d="M1672.4 807.1h9c.5 0 1-.3 1.3-.7v-.3c0-.9-.7-1.6-1.6-1.7h-8.5c-.9 0-1.7.8-1.7 1.7v.3c.4.4.9.7 1.5.7zM1672.6 806.8l3.1 3 4.1-3zM1679.3 814.3h1.2l-.9-1.9zM1637.8 792c-2.8 0-5.1 2-5.6 4.6.2 1.1.7 2 1.5 2.8.1.2.4.3.7.3.4 0 .8-.4.8-.8 0-.2 0-.3-.1-.4l.8-.7 4.4.6v6h4.6v-9.8h-2.2c-1-1.5-2.8-2.6-4.9-2.6zM1651.8 792c2.8 0 5.1 2 5.6 4.6-.2 1.1-.7 2-1.5 2.8-.1.2-.4.3-.7.3-.4 0-.8-.4-.8-.8 0-.2 0-.3.1-.4l-.8-.7-4.4.6v6h-4.6v-9.8h2.2c1.1-1.5 2.9-2.6 4.9-2.6z"/><path fill="#365970" d="M1638.2 795.1c1.7 0 3.1 1.1 3.5 2.7.1-.3.1-.6.1-1 0-2-1.6-3.6-3.6-3.6s-3.6 1.6-3.6 3.6c0 .3 0 .7.1 1 .5-1.6 1.9-2.7 3.5-2.7z"/><path fill="#2A3035" d="M1638.2 800.4c1.7 0 3.1-1.1 3.5-2.7-.4-1.5-1.8-2.7-3.5-2.7s-3.1 1.1-3.5 2.7c.5 1.6 1.9 2.7 3.5 2.7z"/><path fill="#365970" d="M1651.4 795.1c1.7 0 3.1 1.1 3.5 2.7.1-.3.1-.6.1-1 0-2-1.6-3.6-3.6-3.6s-3.6 1.6-3.6 3.6c0 .3 0 .7.1 1 .5-1.6 1.9-2.7 3.5-2.7z"/><path fill="#2A3035" d="M1651.4 800.4c1.7 0 3.1-1.1 3.5-2.7-.4-1.5-1.8-2.7-3.5-2.7s-3.1 1.1-3.5 2.7c.5 1.6 1.9 2.7 3.5 2.7z"/><path fill="#365970" d="M1644.8 759.6l-5.9 30.1 5.9 6.7zM1651.8 789.6c-2.1 0-3.8 1.1-4.9 2.7h-4.4c-1-1.6-2.8-2.7-4.9-2.7-3.2 0-5.7 2.6-5.7 5.7 0 .4 0 .8.1 1.2.5-2.6 2.9-4.6 5.6-4.6 2 0 3.8 1.1 4.8 2.7.2.4.3.8.3 1.2v.8c.1.9.9 1.6 1.9 1.6 1 0 1.7-.7 1.9-1.6V795.9c0-.5.1-.9.3-1.2 1-1.6 2.8-2.7 4.8-2.7 2.8 0 5.1 2 5.6 4.6.1-.4.1-.8.1-1.2.3-3.2-2.3-5.8-5.5-5.8z"/><path fill="#2A3035" d="M1644.8 796.4s.8-2.1 2.2-4.1c1.3-2 2.8-2.4 3.8-2.6l-6-30.2v36.9z"/><path fill="#365970" d="M1640.6 804.4h8.5c.9.1 1.6.8 1.6 1.7v.3c.2-.3.4-.7.4-1.1 0-1-.7-1.7-1.7-1.8h-9c-1 0-1.8.8-1.8 1.8 0 .4.1.8.4 1.1v-.3c-.1-.9.6-1.7 1.6-1.7zM1650.5 814.3v-1.4l-1.6-1.8v-4.3h-8.4v4.3l-1.6 1.8-2.7 3.2h17.2z"/><path fill="#2A3035" d="M1640.3 807.1h9c.5 0 1-.3 1.3-.7v-.3c0-.9-.7-1.6-1.6-1.7h-8.5c-.9 0-1.7.8-1.7 1.7v.3c.4.4 1 .7 1.5.7zM1640.6 806.8l3.1 3 4.1-3zM1647.3 814.3h1.2l-1-1.9zM1767.6 792c-2.8 0-5.1 2-5.6 4.6.2 1.1.7 2 1.5 2.8.1.2.4.3.7.3.4 0 .8-.4.8-.8 0-.2 0-.3-.1-.4l.8-.7 4.4.6v6h4.6v-9.8h-2.2c-1-1.5-2.8-2.6-4.9-2.6zM1781.6 792c2.8 0 5.1 2 5.6 4.6-.2 1.1-.7 2-1.5 2.8-.1.2-.4.3-.7.3-.4 0-.8-.4-.8-.8 0-.2 0-.3.1-.4l-.8-.7-4.4.6v6h-4.6v-9.8h2.2c1.1-1.5 2.9-2.6 4.9-2.6z"/><path fill="#365970" d="M1768 795.1c1.7 0 3.1 1.1 3.5 2.7.1-.3.1-.6.1-1 0-2-1.6-3.6-3.6-3.6s-3.6 1.6-3.6 3.6c0 .3 0 .7.1 1 .5-1.6 1.9-2.7 3.5-2.7z"/><path fill="#2A3035" d="M1768 800.4c1.7 0 3.1-1.1 3.5-2.7-.4-1.5-1.8-2.7-3.5-2.7s-3.1 1.1-3.5 2.7c.5 1.6 1.9 2.7 3.5 2.7z"/><path fill="#365970" d="M1781.2 795.1c1.7 0 3.1 1.1 3.5 2.7.1-.3.1-.6.1-1 0-2-1.6-3.6-3.6-3.6s-3.6 1.6-3.6 3.6c0 .3 0 .7.1 1 .5-1.6 1.9-2.7 3.5-2.7z"/><path fill="#2A3035" d="M1781.2 800.4c1.7 0 3.1-1.1 3.5-2.7-.4-1.5-1.8-2.7-3.5-2.7s-3.1 1.1-3.5 2.7c.5 1.6 1.9 2.7 3.5 2.7z"/><path fill="#365970" d="M1774.6 759.6l-5.9 30.1 5.9 6.7zM1781.6 789.6c-2.1 0-3.8 1.1-4.9 2.7h-4.4c-1-1.6-2.8-2.7-4.9-2.7-3.2 0-5.7 2.6-5.7 5.7 0 .4 0 .8.1 1.2.5-2.6 2.9-4.6 5.6-4.6 2 0 3.8 1.1 4.8 2.7.2.4.3.8.3 1.2v.8c.1.9.9 1.6 1.9 1.6 1 0 1.7-.7 1.9-1.6V795.9c0-.5.1-.9.3-1.2 1-1.6 2.8-2.7 4.8-2.7 2.8 0 5.1 2 5.6 4.6.1-.4.1-.8.1-1.2.3-3.2-2.3-5.8-5.5-5.8z"/><path fill="#2A3035" d="M1774.6 796.4s.8-2.1 2.2-4.1c1.3-2 2.8-2.4 3.8-2.6l-6-30.2v36.9z"/><path fill="#365970" d="M1770.4 804.4h8.5c.9.1 1.6.8 1.6 1.7v.3c.2-.3.4-.7.4-1.1 0-1-.7-1.7-1.7-1.8h-9c-1 0-1.8.8-1.8 1.8 0 .4.1.8.4 1.1v-.3c-.1-.9.6-1.7 1.6-1.7zM1780.3 814.3v-1.4l-1.6-1.8v-4.3h-8.4v4.3l-1.6 1.8-2.7 3.2h17.2z"/><path fill="#2A3035" d="M1770.1 807.1h9c.5 0 1-.3 1.3-.7v-.3c0-.9-.7-1.6-1.6-1.7h-8.5c-.9 0-1.7.8-1.7 1.7v.3c.4.4.9.7 1.5.7zM1770.3 806.8l3.2 3 4.1-3zM1777 814.3h1.3l-1-1.9z"/><path fill="#365970" d="M1647 891.5c-.2-4.2-2.7-22.2-2.7-22.2 0-.5-.2-1-.5-1s-.5.4-.5 1c0 0 .5 14.1.8 22.2.3 8.2.3 8.1-.3 37h3.8c-.3-28.5-.3-28.4-.6-37z"/><path fill="#2A3035" d="M1679.6 928.5h-8.3l1.1-109.3h6.7z"/><path fill="#365970" d="M1678.6 891.5c-.2-4.2-2.7-22.2-2.7-22.2 0-.5-.2-1-.5-1s-.5.4-.5 1c0 0 .5 14.1.8 22.2.3 8.2.3 8.1-.3 37h3.8c-.3-28.5-.3-28.4-.6-37z"/><path fill="#2A3035" d="M1712.6 928.5h-8.4l1.1-109.3h6.7z"/><path fill="#365970" d="M1711.5 891.5c-.2-4.2-2.7-22.2-2.7-22.2 0-.5-.2-1-.5-1s-.5.4-.5 1c0 0 .5 14.1.8 22.2.3 8.2.3 8.1-.3 37h3.8c-.3-28.5-.3-28.4-.6-37z"/><path fill="#2A3035" d="M1744.6 928.5h-8.4l1.1-109.3h6.7z"/><path fill="#365970" d="M1743.5 891.5c-.2-4.2-2.7-22.2-2.7-22.2 0-.5-.2-1-.5-1s-.5.4-.5 1c0 0 .5 14.1.8 22.2.3 8.2.3 8.1-.3 37h3.8c-.3-28.5-.3-28.4-.6-37zM1642 838.3c.1-1.1 2.1-5.5 2.1-5.5 0-.1.2-.2.4-.2s.4.1.4.2c0 0-.4 3.5-.6 5.5-.2 2-.2 2 .3 9.1h-3c.1-7 .1-7 .4-9.1zM1673.5 838.3c.1-1.1 2.1-5.5 2.1-5.5 0-.1.2-.2.4-.2s.4.1.4.2c0 0-.4 3.5-.6 5.5-.2 2-.2 2 .3 9.1h-3c.2-7 .2-7 .4-9.1zM1706.5 838.3c.1-1.1 2.1-5.5 2.1-5.5 0-.1.2-.2.4-.2s.4.1.4.2c0 0-.4 3.5-.6 5.5-.2 2-.2 2 .3 9.1h-3c.1-7 .1-7 .4-9.1zM1738.4 838.3c.1-1.1 2.1-5.5 2.1-5.5 0-.1.2-.2.4-.2s.4.1.4.2c0 0-.4 3.5-.6 5.5-.2 2-.2 2 .3 9.1h-3c.2-7 .2-7 .4-9.1z"/><path fill="#2A3035" d="M1778.3 928.5h-8.3l1.1-109.3h6.7z"/><path fill="#365970" d="M1777.2 891.5c-.2-4.2-2.7-22.2-2.7-22.2 0-.5-.2-1-.5-1s-.5.4-.5 1c0 0 .5 14.1.8 22.2.3 8.2.3 8.1-.3 37h3.8c-.2-28.5-.2-28.4-.6-37z"/><path fill="#3F718C" d="M1623.6 815.2H1801v5.9h-177.4zM1623.6 847.6H1801v5.9h-177.4z"/><path fill="#365970" d="M1623.6 847.4h179.1v1h-179.1zM1772.2 838.3c.1-1.1 2.1-5.5 2.1-5.5 0-.1.2-.2.4-.2s.4.1.4.2c0 0-.4 3.5-.6 5.5-.2 2-.2 2 .3 9.1h-3c.1-7 .1-7 .4-9.1zM1819.2 771.5l.7.3s4.1-14 8.9-20.8c4.8-6.8 3.9-10.7 3.9-10.7l-4 4.4-4 7.3c.1-.1-3.6 7.8-5.5 19.5z"/><path fill="#2A3035" d="M1818.4 749.5c0-.2-.1-.3-.1-.5v22.4h.3s2.6-18.9 3.8-30c-1.8 1.5-3.3 4.4-4 8.1z"/><path fill="#365970" d="M1814.2 741.4c1.2 11.1 3.9 30.1 3.9 30.1h.3v-22.4c-.8-3.6-2.3-6.5-4.2-7.7zM1818.3 725.4v23.7c0 .2.1.3.1.5.6-3.7 2.1-6.7 4-8 .4-3.4.6-6.1.6-7.2.1-5-2-9-4.7-9z"/><path fill="#3F718C" d="M1818.3 749.1v-23.7c-2.6 0-4.8 4-4.8 8.9 0 1.1.2 3.7.6 7.1 2 1.2 3.5 4.1 4.2 7.7zM1828.2 739c2.1 0 3.8 1.4 4.4 3.2.1-.4.2-.9.2-1.3 0-2.5-2-4.6-4.6-4.6-2.5 0-4.6 2-4.6 4.6 0 .5.1.9.2 1.3.6-1.8 2.4-3.2 4.4-3.2z"/><path fill="#365970" d="M1828.2 745.5c2.1 0 3.8-1.4 4.4-3.2-.6-1.9-2.3-3.2-4.4-3.2s-3.8 1.4-4.4 3.2c.6 1.9 2.4 3.2 4.4 3.2z"/><path fill="#2A3035" d="M1827.4 739.5c-.8-.2-1.7.4-2 1.4l-.8 2.7c-.3-.4-.5-.9-.7-1.4-.1-.4-.2-.9-.2-1.3l.2-1.6c-.5 1.3-.8 2.6-.8 4.1 0 2.5.8 4.8 2.2 6.6l2.9-4.4c-.4 0-.7 0-1.1-.1l1.1-3.6c.4-1.1 0-2.1-.8-2.4z"/><path fill="#3F718C" d="M1829.1 740.9c-.7-1.5-2.2-1.4-2.2-1.4 1.1 0 1.6 1 1.4 2-.1.4-.8 2.6-1.2 3.9-.9 2.7-4.4 9.3-6.2 17.4 0 0 1.8-5.1 3.9-9.7 1.5-3.4 3.1-5.1 3.7-7 .7-1.8 1.3-3.7.6-5.2z"/><path fill="#365970" d="M1833.6 752.3c0 .2-.1.3-.2.5l-1.7 3.3c.2.1.3.1.5.2l1.2-2.4c.3-.6.4-1.2.2-1.6z"/><path fill="#3F718C" d="M1833.4 749.5c2.4 0 4.4 1.8 4.7 4.2v-.6c0-2.6-2.1-4.7-4.7-4.7-1.9 0-3.5 1.1-4.3 2.7-.1.4-.1.9 0 1.3v-.2c.7-1.5 2.4-2.7 4.3-2.7z"/><path fill="#2A3035" d="M1824.8 769.5s2.2-3.6 2.6-3.9c.4-.3 4.8-4 6.8-5.9 2-1.9 3.1-4.1 3.1-4.1l-5.7 1.4-4.7 4.7-3.1 4.7-3.2 6.3 1.1 1.5c.1 0 2.2-3.3 3.1-4.7z"/><path fill="#365970" d="M1832.2 756.3l-.5.9c.1 0 .2.1.2.1l.8-.9c-.1 0-.3-.1-.5-.1zM1833.4 749.5c-1.9 0-3.5 1.1-4.3 2.7v.2c.1.5.2 1 .4 1.4l1.3-2.5c.5-.9 1.5-1.4 2.2-1 .6.3.8 1.1.6 1.9.1.5.1 1-.2 1.6l-1.2 2.4c.2.1.4.1.6.1l-.8.9-.3.3c.3.1.5.2.8.2.3.1.6.1.9.1 2.4 0 4.4-1.8 4.7-4.2-.3-2.2-2.3-4.1-4.7-4.1z"/><path fill="#3F718C" d="M1833.7 752s.1 1.7-.4 3.4c-.6 1.9-2.7 3.1-5.2 5.6-2.5 2.5-6.8 11.3-6.9 12l-.4-.2s3.3-7.9 5.8-10.9c2.4-3.1 5.6-5.6 7.1-9.9z"/><path fill="#2A3035" d="M1833.7 770.4s-1.1 1-1.4 1.7l-5.3.8-3.5 1.5-1-.9 2-1.9 4.9-2 4.3.8z"/><path fill="#3F718C" d="M1834 760.7c-2.4 0-4.4 2-4.4 4.4 0 .9.3 1.7.7 2.4l-4.7 2.5-3.7 3 .6.7s1.4-1.6 3.8-3.1c1.5-1 3.8-1.5 5.2-1.9.7.5 1.5.8 2.5.8 2.4 0 4.4-2 4.4-4.4 0-2.5-2-4.4-4.4-4.4z"/><path fill="#2A3035" d="M1826.9 765.4s2-.7 2.1.2c.1.9.5 1.1.7 1.3.2.2.5.7-.7 1.1s-2.6 1.2-3.3 1.7-1.3.5-1-.5-3.1 4.1-3.1 4.1l.4.5s2.9-3.2 5.6-4.5c2.7-1.4 5.9-2.2 7-4.7s-4-2.5-4-2.5l-3.7 3.3z"/><path fill="#365970" d="M1834 767.2h3.9s-1.4 2.4-4.1 3.4-3.8-.7-5.8 0-3.4 1.4-3.4 1.4 1.8-2.2 6.1-3.2c4.1-1 3.3-1.6 3.3-1.6z"/><circle fill="#2A3035" cx="1832.4" cy="779.7" r="5.6"/><path fill="#3F718C" d="M1832.4 778.3c1.3 0 2.4.5 2.7 1.1v-.5c0-1.5-1.2-2.7-2.7-2.7-1.5 0-2.7 1.2-2.7 2.7v.5c.3-.6 1.4-1.1 2.7-1.1z"/><path fill="#2A3035" d="M1824.6 783.1c0-4.3 3.5-7.8 7.8-7.8 1.6 0 3 .5 4.2 1.2-1.6-2.5-4.4-4.2-7.7-4.2-4.7 0-8.5 3.5-9 8 .4 3.7 3 6.7 6.5 7.7-1.1-1.3-1.8-3-1.8-4.9z"/><path fill="#365970" d="M1832.4 778.3c-1.3 0-2.4.5-2.7 1.1.1.3.2.7.4 1 .5.4 1.3.6 2.3.6s1.8-.3 2.3-.6c.2-.3.3-.6.4-1-.2-.6-1.3-1.1-2.7-1.1z"/><path fill="#3F718C" d="M1829 772.4c4.7 0 8.5 3.5 9 8 0-.3.1-.7.1-1 0-5-4.1-9.1-9.1-9.1s-9.1 4.1-9.1 9.1c0 .4 0 .7.1 1 .5-4.5 4.3-8 9-8z"/><path fill="#2A3035" d="M1814 782.7l4-1.7 4 1.7 2.2 3.9-11.4.1zM1810.2 757.1c-.3-.6-.8-1.7-1.2-1.6-.3.1-.5.8-.5.8l-.9-5.1-.4-1.6 2.4 3.1 5.4 12.1-.6.2 2.4 6.5-1.1 1.2-3.5-6.8-4.7-6.2s.9-3.3.6-1.8c-.3 1.5 1.2 2.2 2.2 3.3 1.1 1.1 1.9 2.9 2.4 3.8.3.5.5.4.6.2.1-1.2-2.8-7.5-3.1-8.1zM1803.5 750.4c.7-.4 1.7.1 2.2 1l1.3 2.5c.2-.5.4-1 .4-1.5.1-.4 0-.9 0-1.3v-.1l-.5-1.6c.7 1.2 1.2 2.5 1.5 3.9.4 2.2.1 4.4-.8 6.3-.1.2-2.8-2.1-2.8-2.1l-1.1-1.2c.4-.1.7-.2 1.1-.3l-1.7-3.3c-.5-.9-.3-2 .4-2.3z"/><path fill="#365970" d="M1817.3 771.5l-.7.3s-4.1-14-8.9-20.8c-4.8-6.8-3.9-10.7-3.9-10.7l4 4.4 4 7.3c-.1-.1 3.6 7.8 5.5 19.5z"/><path fill="#3F718C" d="M1808.2 739c-2.1 0-3.8 1.4-4.4 3.2-.1-.4-.2-.9-.2-1.3 0-2.5 2-4.6 4.6-4.6 2.5 0 4.6 2 4.6 4.6 0 .5-.1.9-.2 1.3-.5-1.8-2.3-3.2-4.4-3.2z"/><path fill="#365970" d="M1808.2 745.5c-2.1 0-3.8-1.4-4.4-3.2.6-1.9 2.3-3.2 4.4-3.2s3.8 1.4 4.4 3.2c-.5 1.9-2.3 3.2-4.4 3.2z"/><path fill="#2A3035" d="M1809.1 739.5c.8-.2 1.7.4 2 1.4l.8 2.7c.3-.4.5-.9.7-1.4.1-.4.2-.9.2-1.3l-.2-1.6c.5 1.3.8 2.6.8 4.1 0 2.5-.8 4.8-2.2 6.6l-2.9-4.4c.4 0 .7 0 1.1-.1l-1.1-3.6c-.4-1.1 0-2.1.8-2.4z"/><path fill="#3F718C" d="M1807.3 740.9c.7-1.5 2.2-1.4 2.2-1.4-1.1 0-1.6 1-1.4 2 .1.4.8 2.6 1.2 3.9.9 2.7 4.4 9.3 6.2 17.4 0 0-1.8-5.1-3.9-9.7-1.5-3.4-3.1-5.1-3.7-7-.6-1.8-1.2-3.7-.6-5.2z"/><path fill="#365970" d="M1802.9 752.3c0 .2.1.3.2.5l1.7 3.3c-.2.1-.3.1-.5.2l-1.2-2.4c-.3-.6-.4-1.2-.2-1.6z"/><path fill="#3F718C" d="M1803.1 749.5c-2.4 0-4.4 1.8-4.7 4.2v-.6c0-2.6 2.1-4.7 4.7-4.7 1.9 0 3.5 1.1 4.3 2.7.1.4.1.9 0 1.3v-.2c-.7-1.5-2.4-2.7-4.3-2.7z"/><path fill="#2A3035" d="M1811.7 769.5s-2.2-3.6-2.6-3.9c-.4-.3-4.8-4-6.8-5.9-2-1.9-3.1-4.1-3.1-4.1l5.7 1.4 4.7 4.7 3.1 4.7 3.2 6.3-1.1 1.5c-.1 0-2.2-3.3-3.1-4.7z"/><path fill="#365970" d="M1804.3 756.3l.5.9c-.1 0-.2.1-.2.1l-.8-.9c.1 0 .3-.1.5-.1zM1803.1 749.5c1.9 0 3.5 1.1 4.3 2.7v.2c-.1.5-.2 1-.4 1.4l-1.3-2.5c-.5-.9-1.5-1.4-2.2-1-.6.3-.8 1.1-.6 1.9-.1.5-.1 1 .2 1.6l1.2 2.4c-.2.1-.4.1-.6.1l.8.9.3.3c-.3.1-.5.2-.8.2-.3.1-.6.1-.9.1-2.4 0-4.4-1.8-4.7-4.2.3-2.2 2.3-4.1 4.7-4.1z"/><path fill="#3F718C" d="M1802.8 752s-.1 1.7.4 3.4c.6 1.9 2.7 3.1 5.2 5.6 2.5 2.5 6.8 11.3 6.9 12l.4-.2s-3.3-7.9-5.8-10.9c-2.4-3.1-5.6-5.6-7.1-9.9z"/><path fill="#2A3035" d="M1802.8 770.4s1.1 1 1.4 1.7l5.3.8 3.5 1.5 1-.9-2-1.9-4.9-2-4.3.8z"/><path fill="#3F718C" d="M1802.5 760.7c2.4 0 4.4 2 4.4 4.4 0 .9-.3 1.7-.7 2.4l4.7 2.5 3.7 3-.6.7s-1.4-1.6-3.8-3.1c-1.5-1-3.8-1.5-5.2-1.9-.7.5-1.5.8-2.5.8-2.4 0-4.4-2-4.4-4.4 0-2.5 1.9-4.4 4.4-4.4z"/><path fill="#2A3035" d="M1809.6 765.4s-2-.7-2.1.2c-.1.9-.5 1.1-.7 1.3-.2.2-.5.7.7 1.1s2.6 1.2 3.3 1.7c.7.5 1.3.5 1-.5s3.1 4.1 3.1 4.1l-.4.5s-2.9-3.2-5.6-4.5c-2.7-1.4-5.9-2.2-7-4.7s4-2.5 4-2.5l3.7 3.3z"/><path fill="#365970" d="M1802.5 767.2h-3.9s1.4 2.4 4.1 3.4 3.8-.7 5.8 0 3.4 1.4 3.4 1.4-1.8-2.2-6.1-3.2c-4.1-1-3.3-1.6-3.3-1.6z"/><circle fill="#2A3035" cx="1804.1" cy="779.7" r="5.6"/><path fill="#3F718C" d="M1804.1 778.3c-1.3 0-2.4.5-2.7 1.1v-.5c0-1.5 1.2-2.7 2.7-2.7 1.5 0 2.7 1.2 2.7 2.7v.5c-.3-.6-1.4-1.1-2.7-1.1z"/><path fill="#2A3035" d="M1811.8 783.1c0-4.3-3.5-7.8-7.8-7.8-1.6 0-3 .5-4.2 1.2 1.6-2.5 4.4-4.2 7.7-4.2 4.7 0 8.5 3.5 9 8-.4 3.7-3 6.7-6.5 7.7 1.2-1.3 1.8-3 1.8-4.9z"/><path fill="#365970" d="M1804.1 778.3c1.3 0 2.4.5 2.7 1.1-.1.3-.2.7-.4 1-.5.4-1.3.6-2.3.6-1 0-1.8-.3-2.3-.6-.2-.3-.3-.6-.4-1 .2-.6 1.3-1.1 2.7-1.1z"/><path fill="#3F718C" d="M1807.5 772.4c-4.7 0-8.5 3.5-9 8 0-.3-.1-.7-.1-1 0-5 4.1-9.1 9.1-9.1s9.1 4.1 9.1 9.1c0 .4 0 .7-.1 1-.5-4.5-4.3-8-9-8z"/><path fill="#2A3035" d="M1816.5 772.2l.1-.1c0 .1-.1.1-.1.1z"/><path fill="#3F718C" d="M1823.5 775l-2.5-2.5c-.7-.9-1.8-1.4-3-1.4-1 0-2 .4-2.7 1.1-.1.1-.3.2-.4.3l-2.5 2.5c-.8.8-.8 2.1 0 2.9.2.2.3.3.5.4-.4-.8-.3-1.8.4-2.4l.8-.8c0 2.1 1.7 3.8 3.8 3.8 2.1 0 3.7-1.6 3.8-3.7l.7.7c.7.7.8 1.6.4 2.4.2-.1.4-.2.5-.4 1-.8 1-2.1.2-2.9z"/><path fill="#2A3035" d="M1822.6 775.9c-.3-.3-2.6-2.6-2.6-2.5-.5-.5-1.1-.9-1.9-.9h-.4c-.7 0-1.3.3-1.7.7l-.1.1-2.6 2.6c-.7.7-.8 1.6-.4 2.4.8.4 1.8.3 2.4-.4l.8-.8 1.8-1.8.1-.1.1.1 1.7 1.7.8.8c.7.7 1.6.8 2.4.4.4-.7.3-1.7-.4-2.3z"/><path fill="#3F718C" d="M1814.2 780c0 2.1 3.8 6.2 3.8 6.2v-12.1c0 .1-3.8 3.8-3.8 5.9z"/><path fill="#365970" d="M1818 774.2v12.1s3.8-4.1 3.8-6.2-3.8-5.9-3.8-5.9z"/><path fill="#2A3035" d="M1818.7 778.6c0 .4-.3 8-.7 8s-.7-7.6-.7-8 .3-.7.7-.7.7.3.7.7z"/><path fill="#365970" d="M1812 787.5h12.2c1.3.1 2.3 1.1 2.3 2.4v.4c.3-.4.5-1 .5-1.6 0-1.4-1.1-2.5-2.4-2.6h-12.9c-1.4 0-2.6 1.2-2.6 2.6 0 .6.2 1.1.6 1.6v-.4c-.2-1.3 1-2.4 2.3-2.4z"/><path fill="#2A3035" d="M1811.6 791.4h12.9c.8-.1 1.4-.4 1.9-1v-.4c0-1.3-1-2.3-2.3-2.4h-12.2c-1.4 0-2.5 1.1-2.5 2.5v.4c.7.5 1.4.9 2.2.9zM1815.1 794.2h6.7v4.7h-6.7z"/><path fill="#365970" d="M1812 791.9h12.2c1.3.1 2.3 1.1 2.3 2.4v.4c.3-.4.5-1 .5-1.6 0-1.4-1.1-2.5-2.4-2.6h-12.9c-1.4 0-2.6 1.2-2.6 2.6 0 .6.2 1.1.6 1.6v-.4c-.2-1.3 1-2.4 2.3-2.4z"/><path fill="#2A3035" d="M1811.6 795.8h12.9c.8-.1 1.4-.4 1.9-1v-.4c0-1.3-1-2.3-2.3-2.4h-12.2c-1.4 0-2.5 1.1-2.5 2.5v.4c.7.5 1.4.9 2.2.9z"/><path fill="#3F718C" d="M1813.2 798.8c2.6 0 4.7.9 5.1 2.1.1-.3.1-.6.1-.9 0-2.9-2.3-5.2-5.2-5.2s-5.2 2.3-5.2 5.2c0 .3 0 .6.1.9.4-1.2 2.5-2.1 5.1-2.1z"/><path fill="#365970" d="M1813.2 798.8c-2.6 0-4.7.9-5.1 2.1.1.7.4 1.3.7 1.8.9.7 2.5 1.2 4.4 1.2 1.9 0 3.5-.5 4.4-1.2.3-.6.6-1.2.7-1.8-.4-1.2-2.6-2.1-5.1-2.1z"/><path fill="#3F718C" d="M1823.2 798.8c2.6 0 4.7.9 5.1 2.1.1-.3.1-.6.1-.9 0-2.9-2.3-5.2-5.2-5.2s-5.2 2.3-5.2 5.2c0 .3 0 .6.1.9.4-1.2 2.6-2.1 5.1-2.1z"/><path fill="#365970" d="M1823.2 798.8c-2.6 0-4.7.9-5.1 2.1.1.7.4 1.3.7 1.8.9.7 2.5 1.2 4.4 1.2 1.9 0 3.5-.5 4.4-1.2.3-.6.6-1.2.7-1.8-.4-1.2-2.5-2.1-5.1-2.1zM1806.8 809s3-2.5 1.7-6.8l9.2-1.2h5l5.5.7s-2.2 4.1 1.1 7.6l-22.5-.3zM1806.8 809h22.5v3.1h-22.5z"/><path fill="#3F718C" d="M1823.2 832.6h1v98.8h-1z"/><path fill="#365970" d="M1623.6 815.1h200.8v1h-200.8z"/><path fill="#2A3035" d="M1944.5 792c-2.8 0-5.1 2-5.6 4.6.2 1.1.7 2 1.5 2.8.1.2.4.3.7.3.4 0 .8-.4.8-.8 0-.2 0-.3-.1-.4l.8-.7 4.4.6v6h4.6v-9.8h-2.2c-1-1.5-2.8-2.6-4.9-2.6zM1958.5 792c2.8 0 5.1 2 5.6 4.6-.2 1.1-.7 2-1.5 2.8-.1.2-.4.3-.7.3-.4 0-.8-.4-.8-.8 0-.2 0-.3.1-.4l-.8-.7-4.4.6v6h-4.6v-9.8h2.2c1.1-1.5 2.9-2.6 4.9-2.6z"/><path fill="#365970" d="M1944.9 795.1c1.7 0 3.1 1.1 3.5 2.7.1-.3.1-.6.1-1 0-2-1.6-3.6-3.6-3.6s-3.6 1.6-3.6 3.6c0 .3 0 .7.1 1 .5-1.6 1.9-2.7 3.5-2.7z"/><path fill="#2A3035" d="M1944.9 800.4c1.7 0 3.1-1.1 3.5-2.7-.4-1.5-1.8-2.7-3.5-2.7s-3.1 1.1-3.5 2.7c.5 1.6 1.9 2.7 3.5 2.7z"/><path fill="#365970" d="M1958.1 795.1c1.7 0 3.1 1.1 3.5 2.7.1-.3.1-.6.1-1 0-2-1.6-3.6-3.6-3.6s-3.6 1.6-3.6 3.6c0 .3 0 .7.1 1 .5-1.6 1.9-2.7 3.5-2.7z"/><path fill="#2A3035" d="M1958.1 800.4c1.7 0 3.1-1.1 3.5-2.7-.4-1.5-1.8-2.7-3.5-2.7s-3.1 1.1-3.5 2.7c.5 1.6 1.9 2.7 3.5 2.7z"/><path fill="#365970" d="M1951.5 759.6l-5.9 30.1 5.9 6.7zM1958.5 789.6c-2.1 0-3.8 1.1-4.9 2.7h-4.4c-1-1.6-2.8-2.7-4.9-2.7-3.2 0-5.7 2.6-5.7 5.7 0 .4 0 .8.1 1.2.5-2.6 2.9-4.6 5.6-4.6 2 0 3.8 1.1 4.8 2.7.2.4.3.8.3 1.2v.8c.1.9.9 1.6 1.9 1.6 1 0 1.7-.7 1.9-1.6V795.9c0-.5.1-.9.3-1.2 1-1.6 2.8-2.7 4.8-2.7 2.8 0 5.1 2 5.6 4.6.1-.4.1-.8.1-1.2.3-3.2-2.3-5.8-5.5-5.8z"/><path fill="#2A3035" d="M1951.5 796.4s.8-2.1 2.2-4.1 2.8-2.4 3.8-2.6l-6-30.2v36.9z"/><path fill="#365970" d="M1947.3 804.4h8.5c.9.1 1.6.8 1.6 1.7v.3c.2-.3.4-.7.4-1.1 0-1-.7-1.7-1.7-1.8h-9c-1 0-1.8.8-1.8 1.8 0 .4.1.8.4 1.1v-.3c-.1-.9.6-1.7 1.6-1.7zM1957.2 814.3v-1.4l-1.6-1.8v-4.3h-8.4v4.3l-1.6 1.8-2.7 3.2h17.2z"/><path fill="#2A3035" d="M1947 807.1h9c.5 0 1-.3 1.3-.7v-.3c0-.9-.7-1.6-1.6-1.7h-8.5c-.9 0-1.7.8-1.7 1.7v.3c.4.4 1 .7 1.5.7zM1947.3 806.8l3.1 3 4.1-3zM1954 814.3h1.2l-1-1.9zM1912 792c-2.8 0-5.1 2-5.6 4.6.2 1.1.7 2 1.5 2.8.1.2.4.3.7.3.4 0 .8-.4.8-.8 0-.2 0-.3-.1-.4l.8-.7 4.4.6v6h4.6v-9.8h-2.2c-1.1-1.5-2.9-2.6-4.9-2.6zM1926 792c2.8 0 5.1 2 5.6 4.6-.2 1.1-.7 2-1.5 2.8-.1.2-.4.3-.7.3-.4 0-.8-.4-.8-.8 0-.2 0-.3.1-.4l-.8-.7-4.4.6v6h-4.6v-9.8h2.2c1.1-1.5 2.9-2.6 4.9-2.6z"/><path fill="#365970" d="M1912.4 795.1c1.7 0 3.1 1.1 3.5 2.7.1-.3.1-.6.1-1 0-2-1.6-3.6-3.6-3.6s-3.6 1.6-3.6 3.6c0 .3 0 .7.1 1 .4-1.6 1.8-2.7 3.5-2.7z"/><path fill="#2A3035" d="M1912.4 800.4c1.7 0 3.1-1.1 3.5-2.7-.4-1.5-1.8-2.7-3.5-2.7s-3.1 1.1-3.5 2.7c.4 1.6 1.8 2.7 3.5 2.7z"/><path fill="#365970" d="M1925.6 795.1c1.7 0 3.1 1.1 3.5 2.7.1-.3.1-.6.1-1 0-2-1.6-3.6-3.6-3.6s-3.6 1.6-3.6 3.6c0 .3 0 .7.1 1 .4-1.6 1.8-2.7 3.5-2.7z"/><path fill="#2A3035" d="M1925.6 800.4c1.7 0 3.1-1.1 3.5-2.7-.4-1.5-1.8-2.7-3.5-2.7s-3.1 1.1-3.5 2.7c.4 1.6 1.8 2.7 3.5 2.7z"/><path fill="#365970" d="M1919 759.6l-5.9 30.1 5.9 6.7zM1926 789.6c-2.1 0-3.8 1.1-4.9 2.7h-4.4c-1-1.6-2.8-2.7-4.9-2.7-3.2 0-5.7 2.6-5.7 5.7 0 .4 0 .8.1 1.2.5-2.6 2.9-4.6 5.6-4.6 2 0 3.8 1.1 4.8 2.7.2.4.3.8.3 1.2v.8c.1.9.9 1.6 1.9 1.6 1 0 1.7-.7 1.9-1.6V795.9c0-.5.1-.9.3-1.2 1-1.6 2.8-2.7 4.8-2.7 2.8 0 5.1 2 5.6 4.6.1-.4.1-.8.1-1.2.3-3.2-2.3-5.8-5.5-5.8z"/><path fill="#2A3035" d="M1919 796.4s.8-2.1 2.2-4.1 2.8-2.4 3.8-2.6l-6-30.2v36.9z"/><path fill="#365970" d="M1914.8 804.4h8.5c.9.1 1.6.8 1.6 1.7v.3c.2-.3.4-.7.4-1.1 0-1-.7-1.7-1.7-1.8h-9c-1 0-1.8.8-1.8 1.8 0 .4.1.8.4 1.1v-.3c-.1-.9.6-1.7 1.6-1.7zM1924.7 814.3v-1.4l-1.6-1.8v-4.3h-8.4v4.3l-1.6 1.8-2.7 3.2h17.2z"/><path fill="#2A3035" d="M1914.5 807.1h9c.5 0 1-.3 1.3-.7v-.3c0-.9-.7-1.6-1.6-1.7h-8.5c-.9 0-1.7.8-1.7 1.7v.3c.4.4.9.7 1.5.7zM1914.7 806.8l3.2 3 4.1-3zM1921.4 814.3h1.3l-1-1.9zM1880 792c-2.8 0-5.1 2-5.6 4.6.2 1.1.7 2 1.5 2.8.1.2.4.3.7.3.4 0 .8-.4.8-.8 0-.2 0-.3-.1-.4l.8-.7 4.4.6v6h4.6v-9.8h-2.2c-1.1-1.5-2.9-2.6-4.9-2.6zM1894 792c2.8 0 5.1 2 5.6 4.6-.2 1.1-.7 2-1.5 2.8-.1.2-.4.3-.7.3-.4 0-.8-.4-.8-.8 0-.2 0-.3.1-.4l-.8-.7-4.4.6v6h-4.6v-9.8h2.2c1.1-1.5 2.9-2.6 4.9-2.6z"/><path fill="#365970" d="M1880.4 795.1c1.7 0 3.1 1.1 3.5 2.7.1-.3.1-.6.1-1 0-2-1.6-3.6-3.6-3.6s-3.6 1.6-3.6 3.6c0 .3 0 .7.1 1 .4-1.6 1.8-2.7 3.5-2.7z"/><path fill="#2A3035" d="M1880.4 800.4c1.7 0 3.1-1.1 3.5-2.7-.4-1.5-1.8-2.7-3.5-2.7s-3.1 1.1-3.5 2.7c.4 1.6 1.8 2.7 3.5 2.7z"/><path fill="#365970" d="M1893.6 795.1c1.7 0 3.1 1.1 3.5 2.7.1-.3.1-.6.1-1 0-2-1.6-3.6-3.6-3.6s-3.6 1.6-3.6 3.6c0 .3 0 .7.1 1 .4-1.6 1.8-2.7 3.5-2.7z"/><path fill="#2A3035" d="M1858.2 928.5h-8.4l1.2-109.3h6.7zM1893.6 800.4c1.7 0 3.1-1.1 3.5-2.7-.4-1.5-1.8-2.7-3.5-2.7s-3.1 1.1-3.5 2.7c.4 1.6 1.8 2.7 3.5 2.7z"/><path fill="#365970" d="M1887 759.6l-6 30.1 6 6.7zM1894 789.6c-2.1 0-3.8 1.1-4.9 2.7h-4.4c-1-1.6-2.8-2.7-4.9-2.7-3.2 0-5.7 2.6-5.7 5.7 0 .4 0 .8.1 1.2.5-2.6 2.9-4.6 5.6-4.6 2 0 3.8 1.1 4.8 2.7.2.4.3.8.3 1.2v.8c.1.9.9 1.6 1.9 1.6 1 0 1.7-.7 1.9-1.6V795.9c0-.5.1-.9.3-1.2 1-1.6 2.8-2.7 4.8-2.7 2.8 0 5.1 2 5.6 4.6.1-.4.1-.8.1-1.2.2-3.2-2.3-5.8-5.5-5.8z"/><path fill="#2A3035" d="M1887 796.4s.8-2.1 2.2-4.1c1.3-2 2.8-2.4 3.8-2.6l-6-30.2v36.9z"/><path fill="#365970" d="M1882.7 804.4h8.5c.9.1 1.6.8 1.6 1.7v.3c.2-.3.4-.7.4-1.1 0-1-.7-1.7-1.7-1.8h-9c-1 0-1.8.8-1.8 1.8 0 .4.1.8.4 1.1v-.3c-.1-.9.7-1.7 1.6-1.7zM1892.7 814.3v-1.4l-1.6-1.8v-4.3h-8.4v4.3l-1.6 1.8-2.8 3.2h17.3z"/><path fill="#2A3035" d="M1882.5 807.1h9c.5 0 1-.3 1.3-.7v-.3c0-.9-.7-1.6-1.6-1.7h-8.5c-.9 0-1.7.8-1.7 1.7v.3c.4.4.9.7 1.5.7zM1882.7 806.8l3.2 3 4.1-3zM1889.4 814.3h1.3l-1-1.9zM1848 792c-2.8 0-5.1 2-5.6 4.6.2 1.1.7 2 1.5 2.8.1.2.4.3.7.3.4 0 .8-.4.8-.8 0-.2 0-.3-.1-.4l.8-.7 4.4.6v6h4.6v-9.8h-2.2c-1.1-1.5-2.9-2.6-4.9-2.6zM1862 792c2.8 0 5.1 2 5.6 4.6-.2 1.1-.7 2-1.5 2.8-.1.2-.4.3-.7.3-.4 0-.8-.4-.8-.8 0-.2 0-.3.1-.4l-.8-.7-4.4.6v6h-4.6v-9.8h2.2c1-1.5 2.8-2.6 4.9-2.6z"/><path fill="#365970" d="M1848.4 795.1c1.7 0 3.1 1.1 3.5 2.7.1-.3.1-.6.1-1 0-2-1.6-3.6-3.6-3.6s-3.6 1.6-3.6 3.6c0 .3 0 .7.1 1 .4-1.6 1.8-2.7 3.5-2.7z"/><path fill="#2A3035" d="M1848.4 800.4c1.7 0 3.1-1.1 3.5-2.7-.4-1.5-1.8-2.7-3.5-2.7s-3.1 1.1-3.5 2.7c.4 1.6 1.8 2.7 3.5 2.7z"/><path fill="#365970" d="M1861.6 795.1c1.7 0 3.1 1.1 3.5 2.7.1-.3.1-.6.1-1 0-2-1.6-3.6-3.6-3.6s-3.6 1.6-3.6 3.6c0 .3 0 .7.1 1 .4-1.6 1.8-2.7 3.5-2.7z"/><path fill="#2A3035" d="M1861.6 800.4c1.7 0 3.1-1.1 3.5-2.7-.4-1.5-1.8-2.7-3.5-2.7s-3.1 1.1-3.5 2.7c.4 1.6 1.8 2.7 3.5 2.7z"/><path fill="#365970" d="M1855 759.6l-6 30.1 6 6.7zM1862 789.6c-2.1 0-3.8 1.1-4.9 2.7h-4.4c-1-1.6-2.8-2.7-4.9-2.7-3.2 0-5.7 2.6-5.7 5.7 0 .4 0 .8.1 1.2.5-2.6 2.9-4.6 5.6-4.6 2 0 3.8 1.1 4.8 2.7.2.4.3.8.3 1.2v.8c.1.9.9 1.6 1.9 1.6 1 0 1.7-.7 1.9-1.6V795.9c0-.5.1-.9.3-1.2 1-1.6 2.8-2.7 4.8-2.7 2.8 0 5.1 2 5.6 4.6.1-.4.1-.8.1-1.2.2-3.2-2.4-5.8-5.5-5.8z"/><path fill="#2A3035" d="M1855 796.4s.8-2.1 2.2-4.1c1.3-2 2.8-2.4 3.8-2.6l-6-30.2v36.9z"/><path fill="#365970" d="M1850.7 804.4h8.5c.9.1 1.6.8 1.6 1.7v.3c.2-.3.4-.7.4-1.1 0-1-.7-1.7-1.7-1.8h-9c-1 0-1.8.8-1.8 1.8 0 .4.1.8.4 1.1v-.3c-.1-.9.7-1.7 1.6-1.7zM1860.7 814.3v-1.4l-1.7-1.8v-4.3h-8.3v4.3l-1.7 1.8-2.7 3.2h17.3z"/><path fill="#2A3035" d="M1850.5 807.1h9c.5 0 1-.3 1.3-.7v-.3c0-.9-.7-1.6-1.6-1.7h-8.5c-.9 0-1.7.8-1.7 1.7v.3c.4.4.9.7 1.5.7zM1850.7 806.8l3.1 3 4.1-3zM1857.4 814.3h1.2l-.9-1.9zM1977.7 792c-2.8 0-5.1 2-5.6 4.6.2 1.1.7 2 1.5 2.8.1.2.4.3.7.3.4 0 .8-.4.8-.8 0-.2 0-.3-.1-.4l.8-.7 4.4.6v6h4.6v-9.8h-2.2c-1-1.5-2.8-2.6-4.9-2.6zM1991.8 792c2.8 0 5.1 2 5.6 4.6-.2 1.1-.7 2-1.5 2.8-.1.2-.4.3-.7.3-.4 0-.8-.4-.8-.8 0-.2 0-.3.1-.4l-.8-.7-4.4.6v6h-4.6v-9.8h2.2c1-1.5 2.8-2.6 4.9-2.6z"/><path fill="#365970" d="M1978.2 795.1c1.7 0 3.1 1.1 3.5 2.7.1-.3.1-.6.1-1 0-2-1.6-3.6-3.6-3.6s-3.6 1.6-3.6 3.6c0 .3 0 .7.1 1 .4-1.6 1.8-2.7 3.5-2.7z"/><path fill="#2A3035" d="M1978.2 800.4c1.7 0 3.1-1.1 3.5-2.7-.4-1.5-1.8-2.7-3.5-2.7s-3.1 1.1-3.5 2.7c.4 1.6 1.8 2.7 3.5 2.7z"/><path fill="#365970" d="M1991.4 795.1c1.7 0 3.1 1.1 3.5 2.7.1-.3.1-.6.1-1 0-2-1.6-3.6-3.6-3.6s-3.6 1.6-3.6 3.6c0 .3 0 .7.1 1 .4-1.6 1.8-2.7 3.5-2.7z"/><path fill="#2A3035" d="M1991.4 800.4c1.7 0 3.1-1.1 3.5-2.7-.4-1.5-1.8-2.7-3.5-2.7s-3.1 1.1-3.5 2.7c.4 1.6 1.8 2.7 3.5 2.7z"/><path fill="#365970" d="M1984.8 759.6l-6 30.1 6 6.7zM1991.8 789.6c-2.1 0-3.8 1.1-4.9 2.7h-4.4c-1-1.6-2.8-2.7-4.9-2.7-3.2 0-5.7 2.6-5.7 5.7 0 .4 0 .8.1 1.2.5-2.6 2.9-4.6 5.6-4.6 2 0 3.8 1.1 4.8 2.7.2.4.3.8.3 1.2v.8c.1.9.9 1.6 1.9 1.6 1 0 1.7-.7 1.9-1.6V795.9c0-.5.1-.9.3-1.2 1-1.6 2.8-2.7 4.8-2.7 2.8 0 5.1 2 5.6 4.6.1-.4.1-.8.1-1.2.2-3.2-2.4-5.8-5.5-5.8z"/><path fill="#2A3035" d="M1984.8 796.4s.8-2.1 2.2-4.1 2.8-2.4 3.8-2.6l-6-30.2v36.9z"/><path fill="#365970" d="M1980.5 804.4h8.5c.9.1 1.6.8 1.6 1.7v.3c.2-.3.4-.7.4-1.1 0-1-.7-1.7-1.7-1.8h-9c-1 0-1.8.8-1.8 1.8 0 .4.1.8.4 1.1v-.3c-.1-.9.7-1.7 1.6-1.7zM1990.5 814.3v-1.4l-1.7-1.8v-4.3h-8.3v4.3l-1.7 1.8-2.7 3.2h17.3z"/><path fill="#2A3035" d="M1980.3 807.1h9c.5 0 1-.3 1.3-.7v-.3c0-.9-.7-1.6-1.6-1.7h-8.5c-.9 0-1.7.8-1.7 1.7v.3c.4.4.9.7 1.5.7zM1980.5 806.8l3.1 3 4.1-3zM1987.2 814.3h1.2l-.9-1.9z"/><path fill="#365970" d="M1857.1 891.5c-.2-4.2-2.7-22.2-2.7-22.2 0-.5-.2-1-.5-1s-.5.4-.5 1c0 0 .5 14.1.8 22.2.3 8.2.3 8.1-.3 37h3.8c-.2-28.5-.2-28.4-.6-37z"/><path fill="#2A3035" d="M1889.8 928.5h-8.4l1.1-109.3h6.7z"/><path fill="#365970" d="M1888.7 891.5c-.2-4.2-2.7-22.2-2.7-22.2 0-.5-.2-1-.5-1s-.5.4-.5 1c0 0 .5 14.1.8 22.2.3 8.2.3 8.1-.3 37h3.8c-.3-28.5-.3-28.4-.6-37z"/><path fill="#2A3035" d="M1922.7 928.5h-8.4l1.2-109.3h6.7z"/><path fill="#365970" d="M1921.6 891.5c-.2-4.2-2.7-22.2-2.7-22.2 0-.5-.2-1-.5-1s-.5.4-.5 1c0 0 .5 14.1.8 22.2.3 8.2.3 8.1-.3 37h3.8c-.2-28.5-.2-28.4-.6-37z"/><path fill="#2A3035" d="M1954.7 928.5h-8.4l1.1-109.3h6.7z"/><path fill="#365970" d="M1953.6 891.5c-.2-4.2-2.7-22.2-2.7-22.2 0-.5-.2-1-.5-1s-.5.4-.5 1c0 0 .5 14.1.8 22.2.3 8.2.3 8.1-.3 37h3.8c-.3-28.5-.3-28.4-.6-37zM1852.1 838.3c.1-1.1 2.1-5.5 2.1-5.5 0-.1.2-.2.4-.2s.4.1.4.2c0 0-.4 3.5-.6 5.5-.2 2-.2 2 .3 9.1h-3c.1-7 .1-7 .4-9.1zM1883.6 838.3c.1-1.1 2.1-5.5 2.1-5.5 0-.1.2-.2.4-.2s.4.1.4.2c0 0-.4 3.5-.6 5.5-.2 2-.2 2 .3 9.1h-3c.2-7 .2-7 .4-9.1zM1916.6 838.3c.1-1.1 2.1-5.5 2.1-5.5 0-.1.2-.2.4-.2s.4.1.4.2c0 0-.4 3.5-.6 5.5-.2 2-.2 2 .3 9.1h-3c.1-7 .1-7 .4-9.1zM1948.6 838.3c.1-1.1 2.1-5.5 2.1-5.5 0-.1.2-.2.4-.2s.4.1.4.2c0 0-.4 3.5-.6 5.5-.2 2-.2 2 .3 9.1h-3c.1-7 .1-7 .4-9.1z"/><path fill="#2A3035" d="M1988.5 928.5h-8.4l1.1-109.3h6.7z"/><path fill="#365970" d="M1987.4 891.5c-.2-4.2-2.7-22.2-2.7-22.2 0-.5-.2-1-.5-1s-.5.4-.5 1c0 0 .5 14.1.8 22.2.3 8.2.3 8.1-.3 37h3.8c-.3-28.5-.3-28.4-.6-37z"/><path fill="#3F718C" d="M1833.7 815.2h177.4v5.9h-177.4zM1833.7 847.6h177.4v5.9h-177.4z"/><path fill="#365970" d="M1833.7 847.4h179.1v1h-179.1zM1982.3 838.3c.1-1.1 2.1-5.5 2.1-5.5 0-.1.2-.2.4-.2s.4.1.4.2c0 0-.4 3.5-.6 5.5-.2 2-.2 2 .3 9.1h-3c.2-7 .2-7 .4-9.1zM1833.7 815.1h179.1v1h-179.1z"/><path fill="#2A3035" d="M2106.6 792c-2.8 0-5.1 2-5.6 4.6.2 1.1.7 2 1.5 2.8.1.2.4.3.7.3.4 0 .8-.4.8-.8 0-.2 0-.3-.1-.4l.8-.7 4.4.6v6h4.6v-9.8h-2.2c-1-1.5-2.8-2.6-4.9-2.6zM2120.7 792c2.8 0 5.1 2 5.6 4.6-.2 1.1-.7 2-1.5 2.8-.1.2-.4.3-.7.3-.4 0-.8-.4-.8-.8 0-.2 0-.3.1-.4l-.8-.7-4.4.6v6h-4.6v-9.8h2.2c1-1.5 2.8-2.6 4.9-2.6z"/><path fill="#365970" d="M2107.1 795.1c1.7 0 3.1 1.1 3.5 2.7.1-.3.1-.6.1-1 0-2-1.6-3.6-3.6-3.6s-3.6 1.6-3.6 3.6c0 .3.1.7.1 1 .4-1.6 1.8-2.7 3.5-2.7z"/><path fill="#2A3035" d="M2107.1 800.4c1.7 0 3.1-1.1 3.5-2.7-.4-1.5-1.8-2.7-3.5-2.7s-3.1 1.1-3.5 2.7c.4 1.6 1.8 2.7 3.5 2.7z"/><path fill="#365970" d="M2120.3 795.1c1.7 0 3.1 1.1 3.5 2.7.1-.3.1-.6.1-1 0-2-1.6-3.6-3.6-3.6s-3.6 1.6-3.6 3.6c0 .3 0 .7.1 1 .4-1.6 1.8-2.7 3.5-2.7z"/><path fill="#2A3035" d="M2120.3 800.4c1.7 0 3.1-1.1 3.5-2.7-.4-1.5-1.8-2.7-3.5-2.7s-3.1 1.1-3.5 2.7c.4 1.6 1.8 2.7 3.5 2.7z"/><path fill="#365970" d="M2113.7 759.6l-6 30.1 6 6.7zM2120.7 789.6c-2.1 0-3.8 1.1-4.9 2.7h-4.4c-1-1.6-2.8-2.7-4.9-2.7-3.2 0-5.7 2.6-5.7 5.7 0 .4 0 .8.1 1.2.5-2.6 2.9-4.6 5.6-4.6 2 0 3.8 1.1 4.8 2.7.2.4.3.8.3 1.2v.8c.1.9.9 1.6 1.9 1.6 1 0 1.7-.7 1.9-1.6V795.9c0-.5.1-.9.3-1.2 1-1.6 2.8-2.7 4.8-2.7 2.8 0 5.1 2 5.6 4.6.1-.4.1-.8.1-1.2.2-3.2-2.4-5.8-5.5-5.8z"/><path fill="#2A3035" d="M2113.7 796.4s.8-2.1 2.2-4.1 2.8-2.4 3.8-2.6l-6-30.2v36.9z"/><path fill="#365970" d="M2109.4 804.4h8.5c.9.1 1.6.8 1.6 1.7v.3c.2-.3.4-.7.4-1.1 0-1-.7-1.7-1.7-1.8h-9c-1 0-1.8.8-1.8 1.8 0 .4.1.8.4 1.1v-.3c-.1-.9.7-1.7 1.6-1.7zM2119.4 814.3v-1.4l-1.7-1.8v-4.3h-8.3v4.3l-1.7 1.8-2.7 3.2h17.3z"/><path fill="#2A3035" d="M2109.2 807.1h9c.5 0 1-.3 1.3-.7v-.3c0-.9-.7-1.6-1.6-1.7h-8.5c-.9 0-1.7.8-1.7 1.7v.3c.4.4.9.7 1.5.7zM2109.4 806.8l3.1 3 4.1-3zM2116.1 814.3h1.2l-.9-1.9zM2074.1 792c-2.8 0-5.1 2-5.6 4.6.2 1.1.7 2 1.5 2.8.1.2.4.3.7.3.4 0 .8-.4.8-.8 0-.2 0-.3-.1-.4l.8-.7 4.4.6v6h4.6v-9.8h-2.2c-1-1.5-2.8-2.6-4.9-2.6zM2088.1 792c2.8 0 5.1 2 5.6 4.6-.2 1.1-.7 2-1.5 2.8-.1.2-.4.3-.7.3-.4 0-.8-.4-.8-.8 0-.2 0-.3.1-.4l-.8-.7-4.4.6v6h-4.6v-9.8h2.2c1.1-1.5 2.9-2.6 4.9-2.6z"/><path fill="#365970" d="M2074.5 795.1c1.7 0 3.1 1.1 3.5 2.7.1-.3.1-.6.1-1 0-2-1.6-3.6-3.6-3.6s-3.6 1.6-3.6 3.6c0 .3.1.7.1 1 .5-1.6 1.9-2.7 3.5-2.7z"/><path fill="#2A3035" d="M2074.5 800.4c1.7 0 3.1-1.1 3.5-2.7-.4-1.5-1.8-2.7-3.5-2.7s-3.1 1.1-3.5 2.7c.5 1.6 1.9 2.7 3.5 2.7z"/><path fill="#365970" d="M2087.7 795.1c1.7 0 3.1 1.1 3.5 2.7.1-.3.1-.6.1-1 0-2-1.6-3.6-3.6-3.6s-3.6 1.6-3.6 3.6c0 .3 0 .7.1 1 .5-1.6 1.9-2.7 3.5-2.7z"/><path fill="#2A3035" d="M2087.7 800.4c1.7 0 3.1-1.1 3.5-2.7-.4-1.5-1.8-2.7-3.5-2.7s-3.1 1.1-3.5 2.7c.5 1.6 1.9 2.7 3.5 2.7z"/><path fill="#365970" d="M2081.1 759.6l-5.9 30.1 5.9 6.7zM2088.1 789.6c-2.1 0-3.8 1.1-4.9 2.7h-4.4c-1-1.6-2.8-2.7-4.9-2.7-3.2 0-5.7 2.6-5.7 5.7 0 .4 0 .8.1 1.2.5-2.6 2.9-4.6 5.6-4.6 2 0 3.8 1.1 4.8 2.7.2.4.3.8.3 1.2v.8c.1.9.9 1.6 1.9 1.6 1 0 1.7-.7 1.9-1.6V795.9c0-.5.1-.9.3-1.2 1-1.6 2.8-2.7 4.8-2.7 2.8 0 5.1 2 5.6 4.6.1-.4.1-.8.1-1.2.3-3.2-2.3-5.8-5.5-5.8z"/><path fill="#2A3035" d="M2081.1 796.4s.8-2.1 2.2-4.1 2.8-2.4 3.8-2.6l-6-30.2v36.9z"/><path fill="#365970" d="M2076.9 804.4h8.5c.9.1 1.6.8 1.6 1.7v.3c.2-.3.4-.7.4-1.1 0-1-.7-1.7-1.7-1.8h-9c-1 0-1.8.8-1.8 1.8 0 .4.1.8.4 1.1v-.3c-.1-.9.6-1.7 1.6-1.7zM2086.8 814.3v-1.4l-1.6-1.8v-4.3h-8.4v4.3l-1.6 1.8-2.7 3.2h17.2z"/><path fill="#2A3035" d="M2076.6 807.1h9c.5 0 1-.3 1.3-.7v-.3c0-.9-.7-1.6-1.6-1.7h-8.5c-.9 0-1.7.8-1.7 1.7v.3c.4.4.9.7 1.5.7zM2076.9 806.8l3.1 3 4.1-3zM2083.6 814.3h1.2l-1-1.9zM2042.1 792c-2.8 0-5.1 2-5.6 4.6.2 1.1.7 2 1.5 2.8.1.2.4.3.7.3.4 0 .8-.4.8-.8 0-.2 0-.3-.1-.4l.8-.7 4.4.6v6h4.6v-9.8h-2.2c-1.1-1.5-2.8-2.6-4.9-2.6zM2056.1 792c2.8 0 5.1 2 5.6 4.6-.2 1.1-.7 2-1.5 2.8-.1.2-.4.3-.7.3-.4 0-.8-.4-.8-.8 0-.2 0-.3.1-.4l-.8-.7-4.4.6v6h-4.6v-9.8h2.2c1.1-1.5 2.9-2.6 4.9-2.6z"/><path fill="#365970" d="M2042.5 795.1c1.7 0 3.1 1.1 3.5 2.7.1-.3.1-.6.1-1 0-2-1.6-3.6-3.6-3.6s-3.6 1.6-3.6 3.6c0 .3 0 .7.1 1 .4-1.6 1.8-2.7 3.5-2.7z"/><path fill="#2A3035" d="M2042.5 800.4c1.7 0 3.1-1.1 3.5-2.7-.4-1.5-1.8-2.7-3.5-2.7s-3.1 1.1-3.5 2.7c.4 1.6 1.8 2.7 3.5 2.7z"/><path fill="#365970" d="M2055.7 795.1c1.7 0 3.1 1.1 3.5 2.7.1-.3.1-.6.1-1 0-2-1.6-3.6-3.6-3.6s-3.6 1.6-3.6 3.6c0 .3.1.7.1 1 .5-1.6 1.9-2.7 3.5-2.7z"/><path fill="#2A3035" d="M2020.3 928.5h-8.3l1.1-109.3h6.7zM2055.7 800.4c1.7 0 3.1-1.1 3.5-2.7-.4-1.5-1.8-2.7-3.5-2.7s-3.1 1.1-3.5 2.7c.5 1.6 1.9 2.7 3.5 2.7z"/><path fill="#365970" d="M2049.1 759.6l-5.9 30.1 5.9 6.7zM2056.1 789.6c-2.1 0-3.8 1.1-4.9 2.7h-4.4c-1-1.6-2.8-2.7-4.9-2.7-3.2 0-5.7 2.6-5.7 5.7 0 .4 0 .8.1 1.2.5-2.6 2.9-4.6 5.6-4.6 2 0 3.8 1.1 4.8 2.7.2.4.3.8.3 1.2v.8c.1.9.9 1.6 1.9 1.6 1 0 1.7-.7 1.9-1.6V795.9c0-.5.1-.9.3-1.2 1-1.6 2.8-2.7 4.8-2.7 2.8 0 5.1 2 5.6 4.6.1-.4.1-.8.1-1.2.3-3.2-2.3-5.8-5.5-5.8z"/><path fill="#2A3035" d="M2049.1 796.4s.8-2.1 2.2-4.1c1.3-2 2.8-2.4 3.8-2.6l-6-30.2v36.9z"/><path fill="#365970" d="M2044.9 804.4h8.5c.9.1 1.6.8 1.6 1.7v.3c.2-.3.4-.7.4-1.1 0-1-.7-1.7-1.7-1.8h-9c-1 0-1.8.8-1.8 1.8 0 .4.1.8.4 1.1v-.3c-.1-.9.6-1.7 1.6-1.7zM2054.8 814.3v-1.4l-1.6-1.8v-4.3h-8.4v4.3l-1.6 1.8-2.7 3.2h17.2z"/><path fill="#2A3035" d="M2044.6 807.1h9c.5 0 1-.3 1.3-.7v-.3c0-.9-.7-1.6-1.6-1.7h-8.5c-.9 0-1.7.8-1.7 1.7v.3c.4.4.9.7 1.5.7zM2044.8 806.8l3.2 3 4.1-3zM2051.5 814.3h1.3l-1-1.9zM2010.1 792c-2.8 0-5.1 2-5.6 4.6.2 1.1.7 2 1.5 2.8.1.2.4.3.7.3.4 0 .8-.4.8-.8 0-.2 0-.3-.1-.4l.8-.7 4.4.6v6h4.6v-9.8h-2.2c-1.1-1.5-2.9-2.6-4.9-2.6zM2024.1 792c2.8 0 5.1 2 5.6 4.6-.2 1.1-.7 2-1.5 2.8-.1.2-.4.3-.7.3-.4 0-.8-.4-.8-.8 0-.2 0-.3.1-.4l-.8-.7-4.4.6v6h-4.6v-9.8h2.2c1.1-1.5 2.9-2.6 4.9-2.6z"/><path fill="#365970" d="M2010.5 795.1c1.7 0 3.1 1.1 3.5 2.7.1-.3.1-.6.1-1 0-2-1.6-3.6-3.6-3.6s-3.6 1.6-3.6 3.6c0 .3 0 .7.1 1 .4-1.6 1.8-2.7 3.5-2.7z"/><path fill="#2A3035" d="M2010.5 800.4c1.7 0 3.1-1.1 3.5-2.7-.4-1.5-1.8-2.7-3.5-2.7s-3.1 1.1-3.5 2.7c.4 1.6 1.8 2.7 3.5 2.7z"/><path fill="#365970" d="M2023.7 795.1c1.7 0 3.1 1.1 3.5 2.7.1-.3.1-.6.1-1 0-2-1.6-3.6-3.6-3.6s-3.6 1.6-3.6 3.6c0 .3 0 .7.1 1 .4-1.6 1.8-2.7 3.5-2.7z"/><path fill="#2A3035" d="M2023.7 800.4c1.7 0 3.1-1.1 3.5-2.7-.4-1.5-1.8-2.7-3.5-2.7s-3.1 1.1-3.5 2.7c.4 1.6 1.8 2.7 3.5 2.7z"/><path fill="#365970" d="M2017.1 759.6l-6 30.1 6 6.7zM2024.1 789.6c-2.1 0-3.8 1.1-4.9 2.7h-4.4c-1-1.6-2.8-2.7-4.9-2.7-3.2 0-5.7 2.6-5.7 5.7 0 .4 0 .8.1 1.2.5-2.6 2.9-4.6 5.6-4.6 2 0 3.8 1.1 4.8 2.7.2.4.3.8.3 1.2v.8c.1.9.9 1.6 1.9 1.6 1 0 1.7-.7 1.9-1.6V795.9c0-.5.1-.9.3-1.2 1-1.6 2.8-2.7 4.8-2.7 2.8 0 5.1 2 5.6 4.6.1-.4.1-.8.1-1.2.2-3.2-2.3-5.8-5.5-5.8z"/><path fill="#2A3035" d="M2017.1 796.4s.8-2.1 2.2-4.1c1.3-2 2.8-2.4 3.8-2.6l-6-30.2v36.9z"/><path fill="#365970" d="M2012.8 804.4h8.5c.9.1 1.6.8 1.6 1.7v.3c.2-.3.4-.7.4-1.1 0-1-.7-1.7-1.7-1.8h-9c-1 0-1.8.8-1.8 1.8 0 .4.1.8.4 1.1v-.3c-.1-.9.7-1.7 1.6-1.7zM2022.8 814.3v-1.4l-1.6-1.8v-4.3h-8.4v4.3l-1.6 1.8-2.8 3.2h17.3z"/><path fill="#2A3035" d="M2012.6 807.1h9c.5 0 1-.3 1.3-.7v-.3c0-.9-.7-1.6-1.6-1.7h-8.5c-.9 0-1.7.8-1.7 1.7v.3c.4.4.9.7 1.5.7zM2012.8 806.8l3.2 3 4.1-3zM2019.5 814.3h1.3l-1-1.9zM2139.9 792c-2.8 0-5.1 2-5.6 4.6.2 1.1.7 2 1.5 2.8.1.2.4.3.7.3.4 0 .8-.4.8-.8 0-.2 0-.3-.1-.4l.8-.7 4.4.6v6h4.6v-9.8h-2.2c-1.1-1.5-2.9-2.6-4.9-2.6zM2153.9 792c2.8 0 5.1 2 5.6 4.6-.2 1.1-.7 2-1.5 2.8-.1.2-.4.3-.7.3-.4 0-.8-.4-.8-.8 0-.2 0-.3.1-.4l-.8-.7-4.4.6v6h-4.6v-9.8h2.2c1-1.5 2.8-2.6 4.9-2.6z"/><path fill="#365970" d="M2140.3 795.1c1.7 0 3.1 1.1 3.5 2.7.1-.3.1-.6.1-1 0-2-1.6-3.6-3.6-3.6s-3.6 1.6-3.6 3.6c0 .3.1.7.1 1 .4-1.6 1.8-2.7 3.5-2.7z"/><path fill="#2A3035" d="M2140.3 800.4c1.7 0 3.1-1.1 3.5-2.7-.4-1.5-1.8-2.7-3.5-2.7s-3.1 1.1-3.5 2.7c.4 1.6 1.8 2.7 3.5 2.7z"/><path fill="#365970" d="M2153.5 795.1c1.7 0 3.1 1.1 3.5 2.7.1-.3.1-.6.1-1 0-2-1.6-3.6-3.6-3.6s-3.6 1.6-3.6 3.6c0 .3 0 .7.1 1 .4-1.6 1.8-2.7 3.5-2.7z"/><path fill="#2A3035" d="M2153.5 800.4c1.7 0 3.1-1.1 3.5-2.7-.4-1.5-1.8-2.7-3.5-2.7s-3.1 1.1-3.5 2.7c.4 1.6 1.8 2.7 3.5 2.7z"/><path fill="#365970" d="M2146.9 759.6l-6 30.1 6 6.7zM2153.9 789.6c-2.1 0-3.8 1.1-4.9 2.7h-4.4c-1-1.6-2.8-2.7-4.9-2.7-3.2 0-5.7 2.6-5.7 5.7 0 .4 0 .8.1 1.2.5-2.6 2.9-4.6 5.6-4.6 2 0 3.8 1.1 4.8 2.7.2.4.3.8.3 1.2v.8c.1.9.9 1.6 1.9 1.6 1 0 1.7-.7 1.9-1.6V795.9c0-.5.1-.9.3-1.2 1-1.6 2.8-2.7 4.8-2.7 2.8 0 5.1 2 5.6 4.6.1-.4.1-.8.1-1.2.2-3.2-2.3-5.8-5.5-5.8z"/><path fill="#2A3035" d="M2146.9 796.4s.8-2.1 2.2-4.1 2.8-2.4 3.8-2.6l-6-30.2v36.9z"/><path fill="#365970" d="M2142.6 804.4h8.5c.9.1 1.6.8 1.6 1.7v.3c.2-.3.4-.7.4-1.1 0-1-.7-1.7-1.7-1.8h-9c-1 0-1.8.8-1.8 1.8 0 .4.1.8.4 1.1v-.3c-.1-.9.7-1.7 1.6-1.7zM2152.6 814.3v-1.4l-1.6-1.8v-4.3h-8.4v4.3l-1.7 1.8-2.7 3.2h17.3z"/><path fill="#2A3035" d="M2142.4 807.1h9c.5 0 1-.3 1.3-.7v-.3c0-.9-.7-1.6-1.6-1.7h-8.5c-.9 0-1.7.8-1.7 1.7v.3c.4.4.9.7 1.5.7zM2142.6 806.8l3.2 3 4.1-3zM2149.3 814.3h1.3l-1-1.9z"/><path fill="#365970" d="M2019.3 891.5c-.2-4.2-2.7-22.2-2.7-22.2 0-.5-.2-1-.5-1s-.5.4-.5 1c0 0 .5 14.1.8 22.2.3 8.2.3 8.1-.3 37h3.8c-.3-28.5-.3-28.4-.6-37z"/><path fill="#2A3035" d="M2051.9 928.5h-8.4l1.1-109.3h6.7z"/><path fill="#365970" d="M2050.8 891.5c-.2-4.2-2.7-22.2-2.7-22.2 0-.5-.2-1-.5-1s-.5.4-.5 1c0 0 .5 14.1.8 22.2.3 8.2.3 8.1-.3 37h3.8c-.3-28.5-.3-28.4-.6-37z"/><path fill="#2A3035" d="M2084.8 928.5h-8.3l1.1-109.3h6.7z"/><path fill="#365970" d="M2083.8 891.5c-.2-4.2-2.7-22.2-2.7-22.2 0-.5-.2-1-.5-1s-.5.4-.5 1c0 0 .5 14.1.8 22.2.3 8.2.3 8.1-.3 37h3.8c-.3-28.5-.3-28.4-.6-37z"/><path fill="#2A3035" d="M2116.8 928.5h-8.4l1.1-109.3h6.7z"/><path fill="#365970" d="M2115.7 891.5c-.2-4.2-2.7-22.2-2.7-22.2 0-.5-.2-1-.5-1s-.5.4-.5 1c0 0 .5 14.1.8 22.2.3 8.2.3 8.1-.3 37h3.8c-.2-28.5-.2-28.4-.6-37zM2014.2 838.3c.1-1.1 2.1-5.5 2.1-5.5 0-.1.2-.2.4-.2s.4.1.4.2c0 0-.4 3.5-.6 5.5-.2 2-.2 2 .3 9.1h-3c.2-7 .2-7 .4-9.1zM2045.8 838.3c.1-1.1 2.1-5.5 2.1-5.5 0-.1.2-.2.4-.2s.4.1.4.2c0 0-.4 3.5-.6 5.5-.2 2-.2 2 .3 9.1h-3c.1-7 .1-7 .4-9.1zM2078.7 838.3c.1-1.1 2.1-5.5 2.1-5.5 0-.1.2-.2.4-.2s.4.1.4.2c0 0-.4 3.5-.6 5.5-.2 2-.2 2 .3 9.1h-3c.2-7 .2-7 .4-9.1zM2110.7 838.3c.1-1.1 2.1-5.5 2.1-5.5 0-.1.2-.2.4-.2s.4.1.4.2c0 0-.4 3.5-.6 5.5-.2 2-.2 2 .3 9.1h-3c.1-7 .1-7 .4-9.1z"/><path fill="#2A3035" d="M2150.6 928.5h-8.4l1.1-109.3h6.7z"/><path fill="#365970" d="M2149.5 891.5c-.2-4.2-2.7-22.2-2.7-22.2 0-.5-.2-1-.5-1s-.5.4-.5 1c0 0 .5 14.1.8 22.2.3 8.2.3 8.1-.3 37h3.8c-.3-28.5-.3-28.4-.6-37z"/><path fill="#3F718C" d="M1995.8 815.2h177.4v5.9h-177.4zM1995.8 847.6h177.4v5.9h-177.4z"/><path fill="#365970" d="M1995.8 847.4h179.1v1h-179.1zM2144.5 838.3c.1-1.1 2.1-5.5 2.1-5.5 0-.1.2-.2.4-.2s.4.1.4.2c0 0-.4 3.5-.6 5.5-.2 2-.2 2 .3 9.1h-3c.1-7 .1-7 .4-9.1zM1995.8 815.1h179.1v1h-179.1z"/><path fill="#2A3035" d="M2270.2 792c-2.8 0-5.1 2-5.6 4.6.2 1.1.7 2 1.5 2.8.1.2.4.3.7.3.4 0 .8-.4.8-.8 0-.2 0-.3-.1-.4l.8-.7 4.4.6v6h4.6v-9.8h-2.2c-1-1.5-2.8-2.6-4.9-2.6zM2284.3 792c2.8 0 5.1 2 5.6 4.6-.2 1.1-.7 2-1.5 2.8-.1.2-.4.3-.7.3-.4 0-.8-.4-.8-.8 0-.2 0-.3.1-.4l-.8-.7-4.4.6v6h-4.6v-9.8h2.2c1-1.5 2.8-2.6 4.9-2.6z"/><path fill="#365970" d="M2270.6 795.1c1.7 0 3.1 1.1 3.5 2.7.1-.3.1-.6.1-1 0-2-1.6-3.6-3.6-3.6s-3.6 1.6-3.6 3.6c0 .3.1.7.1 1 .5-1.6 1.9-2.7 3.5-2.7z"/><path fill="#2A3035" d="M2270.6 800.4c1.7 0 3.1-1.1 3.5-2.7-.4-1.5-1.8-2.7-3.5-2.7s-3.1 1.1-3.5 2.7c.5 1.6 1.9 2.7 3.5 2.7z"/><path fill="#365970" d="M2283.8 795.1c1.7 0 3.1 1.1 3.5 2.7.1-.3.1-.6.1-1 0-2-1.6-3.6-3.6-3.6s-3.6 1.6-3.6 3.6c0 .3 0 .7.1 1 .5-1.6 1.9-2.7 3.5-2.7z"/><path fill="#2A3035" d="M2283.8 800.4c1.7 0 3.1-1.1 3.5-2.7-.4-1.5-1.8-2.7-3.5-2.7s-3.1 1.1-3.5 2.7c.5 1.6 1.9 2.7 3.5 2.7z"/><path fill="#365970" d="M2277.2 759.6l-5.9 30.1 5.9 6.7zM2284.3 789.6c-2.1 0-3.8 1.1-4.9 2.7h-4.4c-1-1.6-2.8-2.7-4.9-2.7-3.2 0-5.7 2.6-5.7 5.7 0 .4 0 .8.1 1.2.5-2.6 2.9-4.6 5.6-4.6 2 0 3.8 1.1 4.8 2.7.2.4.3.8.3 1.2v.8c.1.9.9 1.6 1.9 1.6 1 0 1.7-.7 1.9-1.6V795.9c0-.5.1-.9.3-1.2 1-1.6 2.8-2.7 4.8-2.7 2.8 0 5.1 2 5.6 4.6.1-.4.1-.8.1-1.2.2-3.2-2.4-5.8-5.5-5.8z"/><path fill="#2A3035" d="M2277.2 796.4s.8-2.1 2.2-4.1 2.8-2.4 3.8-2.6l-6-30.2v36.9z"/><path fill="#365970" d="M2273 804.4h8.5c.9.1 1.6.8 1.6 1.7v.3c.2-.3.4-.7.4-1.1 0-1-.7-1.7-1.7-1.8h-9c-1 0-1.8.8-1.8 1.8 0 .4.1.8.4 1.1v-.3c-.1-.9.7-1.7 1.6-1.7zM2282.9 814.3v-1.4l-1.6-1.8v-4.3h-8.4v4.3l-1.6 1.8-2.7 3.2h17.2z"/><path fill="#2A3035" d="M2272.7 807.1h9c.5 0 1-.3 1.3-.7v-.3c0-.9-.7-1.6-1.6-1.7h-8.5c-.9 0-1.7.8-1.7 1.7v.3c.4.4 1 .7 1.5.7zM2273 806.8l3.1 3 4.1-3zM2279.7 814.3h1.2l-1-1.9zM2237.7 792c-2.8 0-5.1 2-5.6 4.6.2 1.1.7 2 1.5 2.8.1.2.4.3.7.3.4 0 .8-.4.8-.8 0-.2 0-.3-.1-.4l.8-.7 4.4.6v6h4.6v-9.8h-2.2c-1.1-1.5-2.8-2.6-4.9-2.6zM2251.7 792c2.8 0 5.1 2 5.6 4.6-.2 1.1-.7 2-1.5 2.8-.1.2-.4.3-.7.3-.4 0-.8-.4-.8-.8 0-.2 0-.3.1-.4l-.8-.7-4.4.6v6h-4.6v-9.8h2.2c1.1-1.5 2.9-2.6 4.9-2.6z"/><path fill="#365970" d="M2238.1 795.1c1.7 0 3.1 1.1 3.5 2.7.1-.3.1-.6.1-1 0-2-1.6-3.6-3.6-3.6s-3.6 1.6-3.6 3.6c0 .3.1.7.1 1 .4-1.6 1.8-2.7 3.5-2.7z"/><path fill="#2A3035" d="M2238.1 800.4c1.7 0 3.1-1.1 3.5-2.7-.4-1.5-1.8-2.7-3.5-2.7s-3.1 1.1-3.5 2.7c.4 1.6 1.8 2.7 3.5 2.7z"/><path fill="#365970" d="M2251.3 795.1c1.7 0 3.1 1.1 3.5 2.7.1-.3.1-.6.1-1 0-2-1.6-3.6-3.6-3.6s-3.6 1.6-3.6 3.6c0 .3 0 .7.1 1 .5-1.6 1.9-2.7 3.5-2.7z"/><path fill="#2A3035" d="M2251.3 800.4c1.7 0 3.1-1.1 3.5-2.7-.4-1.5-1.8-2.7-3.5-2.7s-3.1 1.1-3.5 2.7c.5 1.6 1.9 2.7 3.5 2.7z"/><path fill="#365970" d="M2244.7 759.6l-5.9 30.1 5.9 6.7zM2251.7 789.6c-2.1 0-3.8 1.1-4.9 2.7h-4.4c-1-1.6-2.8-2.7-4.9-2.7-3.2 0-5.7 2.6-5.7 5.7 0 .4 0 .8.1 1.2.5-2.6 2.9-4.6 5.6-4.6 2 0 3.8 1.1 4.8 2.7.2.4.3.8.3 1.2v.8c.1.9.9 1.6 1.9 1.6 1 0 1.7-.7 1.9-1.6V795.9c0-.5.1-.9.3-1.2 1-1.6 2.8-2.7 4.8-2.7 2.8 0 5.1 2 5.6 4.6.1-.4.1-.8.1-1.2.3-3.2-2.3-5.8-5.5-5.8z"/><path fill="#2A3035" d="M2244.7 796.4s.8-2.1 2.2-4.1 2.8-2.4 3.8-2.6l-6-30.2v36.9z"/><path fill="#365970" d="M2240.5 804.4h8.5c.9.1 1.6.8 1.6 1.7v.3c.2-.3.4-.7.4-1.1 0-1-.7-1.7-1.7-1.8h-9c-1 0-1.8.8-1.8 1.8 0 .4.1.8.4 1.1v-.3c-.1-.9.6-1.7 1.6-1.7zM2250.4 814.3v-1.4l-1.6-1.8v-4.3h-8.4v4.3l-1.6 1.8-2.7 3.2h17.2z"/><path fill="#2A3035" d="M2240.2 807.1h9c.5 0 1-.3 1.3-.7v-.3c0-.9-.7-1.6-1.6-1.7h-8.5c-.9 0-1.7.8-1.7 1.7v.3c.4.4.9.7 1.5.7zM2240.4 806.8l3.2 3 4.1-3zM2247.1 814.3h1.3l-1-1.9zM2205.7 792c-2.8 0-5.1 2-5.6 4.6.2 1.1.7 2 1.5 2.8.1.2.4.3.7.3.4 0 .8-.4.8-.8 0-.2 0-.3-.1-.4l.8-.7 4.4.6v6h4.6v-9.8h-2.2c-1.1-1.5-2.9-2.6-4.9-2.6zM2219.7 792c2.8 0 5.1 2 5.6 4.6-.2 1.1-.7 2-1.5 2.8-.1.2-.4.3-.7.3-.4 0-.8-.4-.8-.8 0-.2 0-.3.1-.4l-.8-.7-4.4.6v6h-4.6v-9.8h2.2c1.1-1.5 2.9-2.6 4.9-2.6z"/><path fill="#365970" d="M2206.1 795.1c1.7 0 3.1 1.1 3.5 2.7.1-.3.1-.6.1-1 0-2-1.6-3.6-3.6-3.6s-3.6 1.6-3.6 3.6c0 .3 0 .7.1 1 .4-1.6 1.8-2.7 3.5-2.7z"/><path fill="#2A3035" d="M2206.1 800.4c1.7 0 3.1-1.1 3.5-2.7-.4-1.5-1.8-2.7-3.5-2.7s-3.1 1.1-3.5 2.7c.4 1.6 1.8 2.7 3.5 2.7z"/><path fill="#365970" d="M2219.3 795.1c1.7 0 3.1 1.1 3.5 2.7.1-.3.1-.6.1-1 0-2-1.6-3.6-3.6-3.6s-3.6 1.6-3.6 3.6c0 .3.1.7.1 1 .4-1.6 1.8-2.7 3.5-2.7z"/><path fill="#2A3035" d="M2183.9 979.1h-8.3l1.1-159.9h6.7zM2219.3 800.4c1.7 0 3.1-1.1 3.5-2.7-.4-1.5-1.8-2.7-3.5-2.7s-3.1 1.1-3.5 2.7c.4 1.6 1.8 2.7 3.5 2.7z"/><path fill="#365970" d="M2212.7 759.6l-6 30.1 6 6.7zM2219.7 789.6c-2.1 0-3.8 1.1-4.9 2.7h-4.4c-1-1.6-2.8-2.7-4.9-2.7-3.2 0-5.7 2.6-5.7 5.7 0 .4 0 .8.1 1.2.5-2.6 2.9-4.6 5.6-4.6 2 0 3.8 1.1 4.8 2.7.2.4.3.8.3 1.2v.8c.1.9.9 1.6 1.9 1.6 1 0 1.7-.7 1.9-1.6V795.9c0-.5.1-.9.3-1.2 1-1.6 2.8-2.7 4.8-2.7 2.8 0 5.1 2 5.6 4.6.1-.4.1-.8.1-1.2.3-3.2-2.3-5.8-5.5-5.8z"/><path fill="#2A3035" d="M2212.7 796.4s.8-2.1 2.2-4.1c1.3-2 2.8-2.4 3.8-2.6l-6-30.2v36.9z"/><path fill="#365970" d="M2208.5 804.4h8.5c.9.1 1.6.8 1.6 1.7v.3c.2-.3.4-.7.4-1.1 0-1-.7-1.7-1.7-1.8h-9c-1 0-1.8.8-1.8 1.8 0 .4.1.8.4 1.1v-.3c-.2-.9.6-1.7 1.6-1.7zM2218.4 814.3v-1.4l-1.6-1.8v-4.3h-8.4v4.3l-1.6 1.8-2.8 3.2h17.3z"/><path fill="#2A3035" d="M2208.2 807.1h9c.5 0 1-.3 1.3-.7v-.3c0-.9-.7-1.6-1.6-1.7h-8.5c-.9 0-1.7.8-1.7 1.7v.3c.4.4.9.7 1.5.7zM2208.4 806.8l3.2 3 4.1-3zM2215.1 814.3h1.3l-1-1.9zM2173.7 792c-2.8 0-5.1 2-5.6 4.6.2 1.1.7 2 1.5 2.8.1.2.4.3.7.3.4 0 .8-.4.8-.8 0-.2 0-.3-.1-.4l.8-.7 4.4.6v6h4.6v-9.8h-2.2c-1.1-1.5-2.9-2.6-4.9-2.6zM2187.7 792c2.8 0 5.1 2 5.6 4.6-.2 1.1-.7 2-1.5 2.8-.1.2-.4.3-.7.3-.4 0-.8-.4-.8-.8 0-.2 0-.3.1-.4l-.8-.7-4.4.6v6h-4.6v-9.8h2.2c1-1.5 2.8-2.6 4.9-2.6z"/><path fill="#365970" d="M2174.1 795.1c1.7 0 3.1 1.1 3.5 2.7.1-.3.1-.6.1-1 0-2-1.6-3.6-3.6-3.6s-3.6 1.6-3.6 3.6c0 .3.1.7.1 1 .4-1.6 1.8-2.7 3.5-2.7z"/><path fill="#2A3035" d="M2174.1 800.4c1.7 0 3.1-1.1 3.5-2.7-.4-1.5-1.8-2.7-3.5-2.7s-3.1 1.1-3.5 2.7c.4 1.6 1.8 2.7 3.5 2.7z"/><path fill="#365970" d="M2187.3 795.1c1.7 0 3.1 1.1 3.5 2.7.1-.3.1-.6.1-1 0-2-1.6-3.6-3.6-3.6s-3.6 1.6-3.6 3.6c0 .3.1.7.1 1 .4-1.6 1.8-2.7 3.5-2.7z"/><path fill="#2A3035" d="M2187.3 800.4c1.7 0 3.1-1.1 3.5-2.7-.4-1.5-1.8-2.7-3.5-2.7s-3.1 1.1-3.5 2.7c.4 1.6 1.8 2.7 3.5 2.7z"/><path fill="#365970" d="M2180.7 759.6l-6 30.1 6 6.7zM2187.7 789.6c-2.1 0-3.8 1.1-4.9 2.7h-4.4c-1-1.6-2.8-2.7-4.9-2.7-3.2 0-5.7 2.6-5.7 5.7 0 .4 0 .8.1 1.2.5-2.6 2.9-4.6 5.6-4.6 2 0 3.8 1.1 4.8 2.7.2.4.3.8.3 1.2v.8c.1.9.9 1.6 1.9 1.6 1 0 1.7-.7 1.9-1.6V795.9c0-.5.1-.9.3-1.2 1-1.6 2.8-2.7 4.8-2.7 2.8 0 5.1 2 5.6 4.6.1-.4.1-.8.1-1.2.2-3.2-2.3-5.8-5.5-5.8z"/><path fill="#2A3035" d="M2180.7 796.4s.8-2.1 2.2-4.1c1.3-2 2.8-2.4 3.8-2.6l-6-30.2v36.9z"/><path fill="#365970" d="M2176.4 804.4h8.5c.9.1 1.6.8 1.6 1.7v.3c.2-.3.4-.7.4-1.1 0-1-.7-1.7-1.7-1.8h-9c-1 0-1.8.8-1.8 1.8 0 .4.1.8.4 1.1v-.3c-.1-.9.7-1.7 1.6-1.7zM2186.4 814.3v-1.4l-1.7-1.8v-4.3h-8.3v4.3l-1.7 1.8-2.7 3.2h17.3z"/><path fill="#2A3035" d="M2176.2 807.1h9c.5 0 1-.3 1.3-.7v-.3c0-.9-.7-1.6-1.6-1.7h-8.5c-.9 0-1.7.8-1.7 1.7v.3c.4.4.9.7 1.5.7zM2176.4 806.8l3.2 3 4.1-3zM2183.1 814.3h1.2l-.9-1.9zM2303.5 792c-2.8 0-5.1 2-5.6 4.6.2 1.1.7 2 1.5 2.8.1.2.4.3.7.3.4 0 .8-.4.8-.8 0-.2 0-.3-.1-.4l.8-.7 4.4.6v6h4.6v-9.8h-2.2c-1.1-1.5-2.9-2.6-4.9-2.6zM2317.5 792c2.8 0 5.1 2 5.6 4.6-.2 1.1-.7 2-1.5 2.8-.1.2-.4.3-.7.3-.4 0-.8-.4-.8-.8 0-.2 0-.3.1-.4l-.8-.7-4.4.6v6h-4.6v-9.8h2.2c1-1.5 2.8-2.6 4.9-2.6z"/><path fill="#365970" d="M2303.9 795.1c1.7 0 3.1 1.1 3.5 2.7.1-.3.1-.6.1-1 0-2-1.6-3.6-3.6-3.6s-3.6 1.6-3.6 3.6c0 .3.1.7.1 1 .4-1.6 1.8-2.7 3.5-2.7z"/><path fill="#2A3035" d="M2303.9 800.4c1.7 0 3.1-1.1 3.5-2.7-.4-1.5-1.8-2.7-3.5-2.7s-3.1 1.1-3.5 2.7c.4 1.6 1.8 2.7 3.5 2.7z"/><path fill="#365970" d="M2317.1 795.1c1.7 0 3.1 1.1 3.5 2.7.1-.3.1-.6.1-1 0-2-1.6-3.6-3.6-3.6s-3.6 1.6-3.6 3.6c0 .3.1.7.1 1 .4-1.6 1.8-2.7 3.5-2.7z"/><path fill="#2A3035" d="M2317.1 800.4c1.7 0 3.1-1.1 3.5-2.7-.4-1.5-1.8-2.7-3.5-2.7s-3.1 1.1-3.5 2.7c.4 1.6 1.8 2.7 3.5 2.7z"/><path fill="#365970" d="M2310.5 759.6l-6 30.1 6 6.7zM2317.5 789.6c-2.1 0-3.8 1.1-4.9 2.7h-4.4c-1-1.6-2.8-2.7-4.9-2.7-3.2 0-5.7 2.6-5.7 5.7 0 .4 0 .8.1 1.2.5-2.6 2.9-4.6 5.6-4.6 2 0 3.8 1.1 4.8 2.7.2.4.3.8.3 1.2v.8c.1.9.9 1.6 1.9 1.6 1 0 1.7-.7 1.9-1.6V795.9c0-.5.1-.9.3-1.2 1-1.6 2.8-2.7 4.8-2.7 2.8 0 5.1 2 5.6 4.6.1-.4.1-.8.1-1.2.2-3.2-2.4-5.8-5.5-5.8z"/><path fill="#2A3035" d="M2310.5 796.4s.8-2.1 2.2-4.1c1.3-2 2.8-2.4 3.8-2.6l-6-30.2v36.9z"/><path fill="#365970" d="M2306.2 804.4h8.5c.9.1 1.6.8 1.6 1.7v.3c.2-.3.4-.7.4-1.1 0-1-.7-1.7-1.7-1.8h-9c-1 0-1.8.8-1.8 1.8 0 .4.1.8.4 1.1v-.3c-.1-.9.7-1.7 1.6-1.7zM2316.2 814.3v-1.4l-1.7-1.8v-4.3h-8.3v4.3l-1.7 1.8-2.7 3.2h17.3z"/><path fill="#2A3035" d="M2306 807.1h9c.5 0 1-.3 1.3-.7v-.3c0-.9-.7-1.6-1.6-1.7h-8.5c-.9 0-1.7.8-1.7 1.7v.3c.4.4.9.7 1.5.7zM2306.2 806.8l3.1 3 4.1-3zM2312.9 814.3h1.2l-.9-1.9z"/><path fill="#365970" d="M2182.8 891.5c-.2-4.2-2.7-22.2-2.7-22.2 0-.5-.2-1-.5-1s-.5.4-.5 1c0 0 .5 14.1.8 22.2.3 8.2.3 58.7-.3 87.6h3.8c-.2-28.5-.2-79-.6-87.6z"/><path fill="#2A3035" d="M2215.5 979.1h-8.4l1.1-159.9h6.7z"/><path fill="#365970" d="M2214.4 891.5c-.2-4.2-2.7-22.2-2.7-22.2 0-.5-.2-1-.5-1s-.5.4-.5 1c0 0 .5 14.1.8 22.2.3 8.2.3 58.7-.3 87.6h3.8c-.3-28.5-.3-79-.6-87.6z"/><path fill="#2A3035" d="M2248.4 979.1h-8.4l1.2-159.9h6.7z"/><path fill="#365970" d="M2247.3 891.5c-.2-4.2-2.7-22.2-2.7-22.2 0-.5-.2-1-.5-1s-.5.4-.5 1c0 0 .5 14.1.8 22.2.3 8.2.3 58.7-.3 87.6h3.8c-.2-28.5-.2-79-.6-87.6z"/><path fill="#2A3035" d="M2280.4 979.1h-8.4l1.1-159.9h6.7z"/><path fill="#365970" d="M2279.3 891.5c-.2-4.2-2.7-22.2-2.7-22.2 0-.5-.2-1-.5-1s-.5.4-.5 1c0 0 .5 14.1.8 22.2.3 8.2.3 58.7-.3 87.6h3.8c-.3-28.5-.3-79-.6-87.6zM2177.8 838.3c.1-1.1 2.1-5.5 2.1-5.5 0-.1.2-.2.4-.2s.4.1.4.2c0 0-.4 3.5-.6 5.5-.2 2-.2 2 .3 9.1h-3c.1-7 .1-7 .4-9.1zM2209.4 838.3c.1-1.1 2.1-5.5 2.1-5.5 0-.1.2-.2.4-.2s.4.1.4.2c0 0-.4 3.5-.6 5.5-.2 2-.2 2 .3 9.1h-3c.1-7 .1-7 .4-9.1zM2242.3 838.3c.1-1.1 2.1-5.5 2.1-5.5 0-.1.2-.2.4-.2s.4.1.4.2c0 0-.4 3.5-.6 5.5-.2 2-.2 2 .3 9.1h-3c.1-7 .1-7 .4-9.1zM2274.3 838.3c.1-1.1 2.1-5.5 2.1-5.5 0-.1.2-.2.4-.2s.4.1.4.2c0 0-.4 3.5-.6 5.5-.2 2-.2 2 .3 9.1h-3c.1-7 .1-7 .4-9.1z"/><path fill="#2A3035" d="M2314.2 979.1h-8.4l1.1-159.9h6.7z"/><path fill="#365970" d="M2313.1 891.5c-.2-4.2-2.7-22.2-2.7-22.2 0-.5-.2-1-.5-1s-.5.4-.5 1c0 0 .5 14.1.8 22.2.3 8.2.3 58.7-.3 87.6h3.8c-.3-28.5-.3-79-.6-87.6z"/><path fill="#3F718C" d="M2159.4 815.2h177.4v5.9h-177.4zM2159.4 847.6h177.4v5.9h-177.4z"/><path fill="#365970" d="M2159.4 847.4h179.1v1h-179.1zM2308 838.3c.1-1.1 2.1-5.5 2.1-5.5 0-.1.2-.2.4-.2s.4.1.4.2c0 0-.4 3.5-.6 5.5-.2 2-.2 2 .3 9.1h-3c.2-7 .2-7 .4-9.1zM2159.4 815.1h179.1v1h-179.1z"/><path fill="#FFD6BB" d="M655.7 323.8h197v17.1h-197z"/><path fill="#FF7300" d="M667.9 299.3h25.3v6h-25.3zM817.4 299.3h25.3v6h-25.3z"/><path fill="#FFBE8D" d="M643.3 339.5h221.8v412H643.3z"/><path fill="#FF9D5A" d="M852.7 387h-197l-8.4-17h213.8zM852.7 540.1h-197l-8.4-17h213.8z"/><path fill="#3F718C" d="M705.9 353.7c0 8.4-9.7 15.2-21.7 15.2s-21.7-6.8-21.7-15.2 21.7-15.2 21.7-15.2 21.7 6.8 21.7 15.2zM733.9 353.7c0 8.4-9.7 15.2-21.7 15.2s-21.7-6.8-21.7-15.2 21.7-15.2 21.7-15.2 21.7 6.8 21.7 15.2zM762 353.7c0 8.4-9.7 15.2-21.7 15.2s-21.7-6.8-21.7-15.2 21.7-15.2 21.7-15.2 21.7 6.8 21.7 15.2zM790 353.7c0 8.4-9.7 15.2-21.7 15.2s-21.7-6.8-21.7-15.2 21.7-15.2 21.7-15.2 21.7 6.8 21.7 15.2zM818 353.7c0 8.4-9.7 15.2-21.7 15.2s-21.7-6.8-21.7-15.2 21.7-15.2 21.7-15.2 21.7 6.8 21.7 15.2zM846.1 353.7c0 8.4-9.7 15.2-21.7 15.2s-21.7-6.8-21.7-15.2 21.7-15.2 21.7-15.2 21.7 6.8 21.7 15.2z"/><path fill="#28475B" d="M661.3 366.6v31.9c0-8.5 9.7-13.6 21.7-13.6s21.7 5.2 21.7 13.6v-31.9h-43.4zM804 366.6v31.9c0-8.5 9.7-13.6 21.7-13.6s21.7 5.2 21.7 13.6v-31.9H804zM732.5 366.6v31.9c0-8.5 9.7-13.6 21.7-13.6s21.7 5.2 21.7 13.6v-31.9h-43.4z"/><path fill="#2A3035" d="M877.2 370h-246l-12.4-23.8h270.8zM877.2 523.1h-246l-6.8-15.2H884z"/><path fill="#FFBE8D" d="M670.2 305.3h20.2v18.6h-20.2zM819.3 305.3h20.2v18.6h-20.2z"/><path fill="#28475B" d="M858.8 420c-8.1.3-14.5 2.6-15.4 5.6h-.1v82.3h15.5V420zM792.9 420c8.1.3 14.5 2.6 15.4 5.6h.1v82.3h-15.5V420zM787.2 420c-8.1.3-14.5 2.6-15.4 5.6h-.1v82.3h15.5V420zM721.3 420c8.1.3 14.5 2.6 15.4 5.6h.1v82.3h-15.5V420zM715.4 420c-8.1.3-14.5 2.6-15.4 5.6h-.1v82.3h15.5V420zM649.5 420c8.1.3 14.5 2.6 15.4 5.6h.1v82.3h-15.5V420z"/><path fill="#2A3035" d="M717.5 364.7h9.2v155h-9.2zM642.9 473.6h218.9v4.5H642.9zM860.5 364.7h9.2v387.1h-9.2zM781.5 364.7h9.2v155h-9.2z"/><path fill="#85D3FF" d="M665.2 451.8h15.5v21.8h-15.5zM684.2 451.8h15.5v21.8h-15.5zM665.2 482h15.5v21.8h-15.5zM684.2 482h15.5v21.8h-15.5zM737 451.8h15.5v21.8H737zM755.9 451.8h15.5v21.8h-15.5zM737 482h15.5v21.8H737zM755.9 482h15.5v21.8h-15.5zM808.5 451.8H824v21.8h-15.5zM827.5 451.8H843v21.8h-15.5zM808.5 482H824v21.8h-15.5zM827.5 482H843v21.8h-15.5z"/><g fill="#85D3FF"><path d="M680.8 420c-8.1.3-14.5 2.6-15.4 5.6h-.1v21.8h15.5V420zM684.2 420c8.1.3 14.5 2.6 15.4 5.6h.1v21.8h-15.5V420z"/></g><g fill="#85D3FF"><path d="M752.5 420c-8.1.3-14.5 2.6-15.4 5.6h-.1v21.8h15.5V420zM755.9 420c8.1.3 14.5 2.6 15.4 5.6h.1v21.8h-15.5V420z"/></g><g fill="#85D3FF"><path d="M824 420c-8.1.3-14.5 2.6-15.4 5.6h-.1v21.8H824V420zM827.5 420c8.1.3 14.5 2.6 15.4 5.6h.1v21.8h-15.5V420z"/></g><path fill="#2A3035" d="M642.9 499.3h218.9v4.5H642.9z"/><g fill="#2A3035"><path d="M662 476h1.7v24.5H662zM667.6 476h1.7v24.5h-1.7zM673.2 476h1.7v24.5h-1.7zM678.8 476h1.7v24.5h-1.7zM684.4 476h1.7v24.5h-1.7zM689.9 476h1.7v24.5h-1.7zM695.5 476h1.7v24.5h-1.7zM701.1 476h1.7v24.5h-1.7z"/></g><g fill="#2A3035"><path d="M733.8 476h1.7v24.5h-1.7zM739.4 476h1.7v24.5h-1.7zM745 476h1.7v24.5H745zM750.6 476h1.7v24.5h-1.7zM756.2 476h1.7v24.5h-1.7zM761.8 476h1.7v24.5h-1.7zM767.3 476h1.7v24.5h-1.7zM772.9 476h1.7v24.5h-1.7z"/></g><g fill="#2A3035"><path d="M805.4 476h1.7v24.5h-1.7zM810.9 476h1.7v24.5h-1.7zM816.5 476h1.7v24.5h-1.7zM822.1 476h1.7v24.5h-1.7zM827.7 476h1.7v24.5h-1.7zM833.3 476h1.7v24.5h-1.7zM838.9 476h1.7v24.5h-1.7zM844.5 476h1.7v24.5h-1.7z"/></g><path fill="#28475B" d="M804 522.8v31.9c0-8.5 9.7-13.6 21.7-13.6s21.7 5.2 21.7 13.6v-31.9H804zM732.5 522.8v31.9c0-8.5 9.7-13.6 21.7-13.6s21.7 5.2 21.7 13.6v-31.9h-43.4zM858.8 652.1c-8.1.3-14.5 2.6-15.4 5.6h-.1V740h15.5V652.1zM792.9 652.1c8.1.3 14.5 2.6 15.4 5.6h.1V740h-15.5V652.1zM787.2 652.1c-8.1.3-14.5 2.6-15.4 5.6h-.1V740h15.5V652.1zM721.3 652.1c8.1.3 14.5 2.6 15.4 5.6h.1V740h-15.5V652.1z"/><path fill="#2A3035" d="M781.5 515.9h9.2v236h-9.2zM794.8 521h4.5v228.5h-4.5zM851.6 521h4.5v228.5h-4.5z"/><path fill="#85D3FF" d="M737 683.9h15.5v21.8H737zM755.9 683.9h15.5v21.8h-15.5zM737 714.1h15.5v21.8H737zM755.9 714.1h15.5v21.8h-15.5zM808.5 683.9H824v21.8h-15.5zM827.5 683.9H843v21.8h-15.5zM808.5 714.1H824v21.8h-15.5zM827.5 714.1H843v21.8h-15.5z"/><g fill="#85D3FF"><path d="M752.5 652.1c-8.1.3-14.5 2.6-15.4 5.6h-.1v21.8h15.5v-27.4zM755.9 652.1c8.1.3 14.5 2.6 15.4 5.6h.1v21.8h-15.5v-27.4z"/></g><g fill="#85D3FF"><path d="M824 652.1c-8.1.3-14.5 2.6-15.4 5.6h-.1v21.8H824v-27.4zM827.5 652.1c8.1.3 14.5 2.6 15.4 5.6h.1v21.8h-15.5v-27.4z"/></g><g fill="#2A3035"><path d="M733.8 708.2h1.7v24.5h-1.7zM739.4 708.2h1.7v24.5h-1.7zM745 708.2h1.7v24.5H745zM750.6 708.2h1.7v24.5h-1.7zM756.2 708.2h1.7v24.5h-1.7zM761.8 708.2h1.7v24.5h-1.7zM767.3 708.2h1.7v24.5h-1.7zM772.9 708.2h1.7v24.5h-1.7z"/></g><g fill="#2A3035"><path d="M805.4 708.2h1.7v24.5h-1.7zM810.9 708.2h1.7v24.5h-1.7zM816.5 708.2h1.7v24.5h-1.7zM822.1 708.2h1.7v24.5h-1.7zM827.7 708.2h1.7v24.5h-1.7zM833.3 708.2h1.7v24.5h-1.7zM838.9 708.2h1.7v24.5h-1.7zM844.5 708.2h1.7v24.5h-1.7z"/></g><path fill="#FF9D5A" d="M653.2 613.9h60.2v137.6h-60.2z"/><path fill="#FF7300" d="M713.2 751.6h-60.3V633.5s12.2-7.1 30.3-7.1 30 7.1 30 7.1v118.1zM647.4 609.8h79.4v6h-79.4z"/><path fill="#FFD6BB" d="M647.4 599.8h79.4v6h-79.4z"/><path fill="#FF9D5A" d="M647.4 605.4h79.4v6h-79.4z"/><path fill="#85D3FF" d="M705.8 655.9h-45.4v-19.1s9.2-5.3 22.8-5.3 22.6 5.3 22.6 5.3v19.1z"/><path fill="#2A3035" d="M652.9 516h4.5v236.6h-4.5zM708.8 516h4.5v237.4h-4.5zM638.4 364.7h9.2v387.1h-9.2zM717.5 515.9h9.2v236h-9.2zM642.9 705.8h218.9v4.5H642.9zM642.9 731.4h218.9v4.5H642.9zM660.4 660.5h45.4v91.4h-45.4z"/><path fill="#28475B" d="M665.5 666h13.3v24.5h-13.3zM687.8 666h13.3v24.5h-13.3zM665.5 720.8h13.3v24.5h-13.3zM687.8 720.8h13.3v24.5h-13.3z"/><circle fill="#FFBE8D" cx="669.2" cy="706.4" r="4"/><path fill="#28475B" d="M661.6 522.8v31.9c0-8.5 9.7-13.6 21.7-13.6s21.7 5.2 21.7 13.6v-31.9h-43.4z"/><path fill="#2A3035" d="M826.2 556.1v-34.4h-.8v34.4c-2.5 0-4.4.4-4.4.9v1.7h9.7V557c0-.5-2-.8-4.5-.9z"/><path fill="#FFD6BB" d="M832.6 559.1c0-.7-3.1-1.3-6.9-1.3-3.8 0-6.9.6-6.9 1.3l-5.6 19h24.9l-5.5-19z"/><ellipse fill="#fff" cx="825.7" cy="578.1" rx="12.5" ry="2.3"/><path fill="#2A3035" d="M754.8 556.1v-34.4h-.8v34.4c-2.5 0-4.4.4-4.4.9v1.7h9.7V557c-.1-.5-2-.8-4.5-.9z"/><path fill="#FFD6BB" d="M761.1 559.1c0-.7-3.1-1.3-6.9-1.3s-6.9.6-6.9 1.3l-5.6 19h24.9l-5.5-19z"/><ellipse fill="#fff" cx="754.2" cy="578.1" rx="12.5" ry="2.3"/><path fill="#2A3035" d="M683.6 556.1v-34.4h-.8v34.4c-2.5 0-4.4.4-4.4.9v1.7h9.7V557c0-.5-2-.8-4.5-.9z"/><path fill="#FFD6BB" d="M690 559.1c0-.7-3.1-1.3-6.9-1.3-3.8 0-6.9.6-6.9 1.3l-5.6 19h24.9l-5.5-19z"/><ellipse fill="#fff" cx="683.1" cy="578.1" rx="12.5" ry="2.3"/><path fill="#FBB040" d="M936.3 323.8h197v17.1h-197zM948.5 299.3h25.3v6h-25.3zM1098 299.3h25.3v6H1098z"/><path fill="#F9ED32" d="M923.9 339.5h221.8v412H923.9z"/><path fill="#FBB040" d="M1133.3 387h-197l-8.3-17h213.7zM1133.3 540.1h-197l-8.3-17h213.7z"/><path fill="#2A3035" d="M986.5 353.7c0 8.4-9.7 15.2-21.7 15.2s-21.7-6.8-21.7-15.2 21.7-15.2 21.7-15.2 21.7 6.8 21.7 15.2zM1014.5 353.7c0 8.4-9.7 15.2-21.7 15.2s-21.7-6.8-21.7-15.2 21.7-15.2 21.7-15.2 21.7 6.8 21.7 15.2zM1042.6 353.7c0 8.4-9.7 15.2-21.7 15.2s-21.7-6.8-21.7-15.2 21.7-15.2 21.7-15.2 21.7 6.8 21.7 15.2zM1070.6 353.7c0 8.4-9.7 15.2-21.7 15.2s-21.7-6.8-21.7-15.2 21.7-15.2 21.7-15.2 21.7 6.8 21.7 15.2zM1098.7 353.7c0 8.4-9.7 15.2-21.7 15.2s-21.7-6.8-21.7-15.2 21.7-15.2 21.7-15.2 21.7 6.8 21.7 15.2zM1126.7 353.7c0 8.4-9.7 15.2-21.7 15.2s-21.7-6.8-21.7-15.2 21.7-15.2 21.7-15.2 21.7 6.8 21.7 15.2zM1157.8 523.1h-246l-6.8-15.2h259.6z"/><path fill="#F9ED32" d="M950.8 305.3H971v18.6h-20.2zM1100 305.3h20.2v18.6H1100z"/><path fill="#005CBF" d="M1139.4 420c-8.1.3-14.5 2.6-15.4 5.6h-.1v82.3h15.5V420zM1073.6 420c8.1.3 14.5 2.6 15.4 5.6h.1v82.3h-15.5V420zM1067.8 420c-8.1.3-14.5 2.6-15.4 5.6h-.1v82.3h15.5V420zM1001.9 420c8.1.3 14.5 2.6 15.4 5.6h.1v82.3h-15.5V420zM996 420c-8.1.3-14.5 2.6-15.4 5.6h-.1v82.3H996V420zM930.2 420c8.1.3 14.5 2.6 15.4 5.6h.1v82.3h-15.5V420z"/><path fill="#2A3035" d="M998.1 364.7h9.2v155h-9.2zM923.5 473.6h218.9v4.5H923.5zM1141.1 364.7h9.2v387.1h-9.2zM1062.1 364.7h9.2v155h-9.2zM1075.4 355.6h4.5v161.8h-4.5zM1132.2 355.6h4.5v161.8h-4.5zM932.2 355.6h4.5v161.8h-4.5zM989 355.6h4.5v161.8H989z"/><path fill="#85D3FF" d="M945.8 451.8h15.5v21.8h-15.5zM964.8 451.8h15.5v21.8h-15.5zM945.8 482h15.5v21.8h-15.5zM964.8 482h15.5v21.8h-15.5zM1017.6 451.8h15.5v21.8h-15.5zM1036.6 451.8h15.5v21.8h-15.5zM1017.6 482h15.5v21.8h-15.5zM1036.6 482h15.5v21.8h-15.5zM1089.1 451.8h15.5v21.8h-15.5zM1108.1 451.8h15.5v21.8h-15.5zM1089.1 482h15.5v21.8h-15.5zM1108.1 482h15.5v21.8h-15.5z"/><g fill="#85D3FF"><path d="M961.4 420c-8.1.3-14.5 2.6-15.4 5.6h-.1v21.8h15.5V420zM964.8 420c8.1.3 14.5 2.6 15.4 5.6h.1v21.8h-15.5V420z"/></g><g fill="#85D3FF"><path d="M1033.1 420c-8.1.3-14.5 2.6-15.4 5.6h-.1v21.8h15.5V420zM1036.6 420c8.1.3 14.5 2.6 15.4 5.6h.1v21.8h-15.5V420z"/></g><g fill="#85D3FF"><path d="M1104.6 420c-8.1.3-14.5 2.6-15.4 5.6h-.1v21.8h15.5V420zM1108.1 420c8.1.3 14.5 2.6 15.4 5.6h.1v21.8h-15.5V420z"/></g><path fill="#2A3035" d="M923.5 499.3h218.9v4.5H923.5z"/><path fill="#005CBF" d="M1139.4 652.1c-8.1.3-14.5 2.6-15.4 5.6h-.1V740h15.5V652.1zM1073.6 652.1c8.1.3 14.5 2.6 15.4 5.6h.1V740h-15.5V652.1zM1067.8 652.1c-8.1.3-14.5 2.6-15.4 5.6h-.1V740h15.5V652.1zM1001.9 652.1c8.1.3 14.5 2.6 15.4 5.6h.1V740h-15.5V652.1z"/><path fill="#2A3035" d="M1062.1 515.9h9.2v236h-9.2z"/><path fill="#85D3FF" d="M1017.6 683.9h15.5v21.8h-15.5zM1036.6 683.9h15.5v21.8h-15.5zM1017.6 714.1h15.5v21.8h-15.5zM1036.6 714.1h15.5v21.8h-15.5zM1089.1 683.9h15.5v21.8h-15.5zM1108.1 683.9h15.5v21.8h-15.5zM1089.1 714.1h15.5v21.8h-15.5zM1108.1 714.1h15.5v21.8h-15.5z"/><g fill="#85D3FF"><path d="M1033.1 652.1c-8.1.3-14.5 2.6-15.4 5.6h-.1v21.8h15.5v-27.4zM1036.6 652.1c8.1.3 14.5 2.6 15.4 5.6h.1v21.8h-15.5v-27.4z"/></g><g fill="#85D3FF"><path d="M1104.6 652.1c-8.1.3-14.5 2.6-15.4 5.6h-.1v21.8h15.5v-27.4zM1108.1 652.1c8.1.3 14.5 2.6 15.4 5.6h.1v21.8h-15.5v-27.4z"/></g><g fill="#2A3035"><path d="M1014.5 708.2h1.7v24.5h-1.7zM1020 708.2h1.7v24.5h-1.7zM1025.6 708.2h1.7v24.5h-1.7zM1031.2 708.2h1.7v24.5h-1.7zM1036.8 708.2h1.7v24.5h-1.7zM1042.4 708.2h1.7v24.5h-1.7zM1048 708.2h1.7v24.5h-1.7zM1053.5 708.2h1.7v24.5h-1.7z"/></g><g fill="#2A3035"><path d="M1086 708.2h1.7v24.5h-1.7zM1091.6 708.2h1.7v24.5h-1.7zM1097.1 708.2h1.7v24.5h-1.7zM1102.7 708.2h1.7v24.5h-1.7zM1108.3 708.2h1.7v24.5h-1.7zM1113.9 708.2h1.7v24.5h-1.7zM1119.5 708.2h1.7v24.5h-1.7zM1125.1 708.2h1.7v24.5h-1.7z"/></g><path fill="#FBB040" d="M993.8 751.6h-60.3V633.5s12.2-7.1 30.3-7.1 30 7.1 30 7.1v118.1z"/><path fill="#85D3FF" d="M986.4 655.9H941v-19.1s9.2-5.3 22.8-5.3c13.7 0 22.6 5.3 22.6 5.3v19.1z"/><path fill="#2A3035" d="M919 364.7h9.2v387.1H919zM998.1 515.9h9.2v236h-9.2zM923.5 705.8h218.9v4.5H923.5zM923.5 731.4h218.9v4.5H923.5z"/><path fill="#005CBF" d="M941 660.5h45.4v91.4H941z"/><path fill="#2A3035" d="M946.1 666h36v73.5h-36zM1106.9 556.1v-34.4h-.8v34.4c-2.5 0-4.4.4-4.4.9v1.7h9.7V557c-.1-.5-2.1-.8-4.5-.9z"/><ellipse fill="#fff" cx="1106.3" cy="570.3" rx="12.5" ry="9.6"/><path fill="#2A3035" d="M1035.4 556.1v-34.4h-.8v34.4c-2.5 0-4.4.4-4.4.9v1.7h9.7V557c-.1-.5-2-.8-4.5-.9zM964.2 556.1v-34.4h-.8v34.4c-2.5 0-4.4.4-4.4.9v1.7h9.7V557c0-.5-2-.8-4.5-.9z"/><path fill="#5CC46D" d="M2398 995.1c-354.5-116.3-769.9-183.3-1214-183.3-431.8 0-836.5 63.3-1184.4 173.7v271.7c373.4-65 771.4-79.5 1184.4-79.5 424 0 832 16.4 1214 84.7V995.1z"/><linearGradient id="b" gradientUnits="userSpaceOnUse" x1="1200.788" y1="1263.503" x2="1200.788" y2="812.856"><stop offset="0" stop-color="#1C6C6D" stop-opacity=".8"/><stop offset=".214" stop-color="#2F866D" stop-opacity=".629"/><stop offset=".545" stop-color="#47A86D" stop-opacity=".364"/><stop offset=".819" stop-color="#57BC6D" stop-opacity=".145"/><stop offset="1" stop-color="#5CC46D" stop-opacity="0"/></linearGradient><path fill="url(#b)" d="M2400 996.1c-354.5-116.3-769.9-183.3-1214-183.3-431.8 0-836.5 63.3-1184.4 173.7v271.7c373.4-65 771.4-79.5 1184.4-79.5 424 0 832 16.4 1214 84.7V996.1z"/><path fill="#0059AA" d="M2398.8 1188c-2.4 31-28.2 55.3-59.8 55.3s-57.4-24.4-59.8-55.3h-.4c-2.4 31-28.2 55.3-59.8 55.3-31.6 0-57.4-24.4-59.8-55.3h-.4c-2.4 31-28.2 55.3-59.8 55.3s-57.4-24.4-59.8-55.3h-.4c-2.4 31-28.2 55.3-59.8 55.3-31.6 0-57.4-24.4-59.8-55.3h-.4c-2.4 31-28.2 55.3-59.8 55.3-31.6 0-57.4-24.4-59.8-55.3h-.4c-2.4 31-28.2 55.3-59.8 55.3-31.6 0-57.4-24.4-59.8-55.3h-.4c-2.4 31-28.2 55.3-59.8 55.3-31.6 0-57.4-24.4-59.8-55.3h-.4c-2.4 31-28.2 55.3-59.8 55.3s-57.4-24.4-59.8-55.3h-.4c-2.4 31-28.2 55.3-59.8 55.3-31.6 0-57.4-24.4-59.8-55.3h-.4c-2.4 31-28.2 55.3-59.8 55.3-31.6 0-57.4-24.4-59.8-55.3h-.4c-2.4 31-28.2 55.3-59.8 55.3-31.6 0-57.4-24.4-59.8-55.3h-.4c-2.4 31-28.2 55.3-59.8 55.3s-57.4-24.4-59.8-55.3h-.4c-2.4 31-28.2 55.3-59.8 55.3s-57.4-24.4-59.8-55.3h-.4c-2.4 31-28.2 55.3-59.8 55.3s-57.4-24.4-59.8-55.3h-.4c-2.4 31-28.2 55.3-59.8 55.3-31.6 0-57.4-24.4-59.8-55.3h-.4c-2.4 31-28.2 55.3-59.8 55.3-31.6 0-57.4-24.4-59.8-55.3h-.4c-2.4 31-28.2 55.3-59.8 55.3s-57.4-24.4-59.8-55.3h-.4c-2.4 31-28.2 55.3-59.8 55.3s-57.4-24.4-59.8-55.3h-.4c-2.4 31-28.2 55.3-59.8 55.3s-57.4-24.4-59.8-55.3h-.4c-2.4 31-28.2 55.3-59.8 55.3S2.6 1218.9.2 1188H0v608.9h2399V1188h-.2z"/><path fill="#CAE0EF" d="M2076.8 1584.2l22.3-22.3-42.8-42.8c40.6-45.7 62.6-102.2 66-159.7h60.6v-31.6h-60.6c-3.4-57.4-25.4-114-66-159.7l42.8-42.8-22.3-22.3-42.8 42.8c-45.7-40.6-102.2-62.6-159.7-66v-60.6h-31.6v60.6c-57.4 3.4-114 25.4-159.7 66l-42.8-42.8-22.3 22.3 42.8 42.8c-40.6 45.7-62.6 102.2-66 159.7H1534v31.6h60.6c3.4 57.4 25.4 114 66 159.7l-42.8 42.8 22.3 22.3 42.8-42.8c45.7 40.6 102.2 62.6 159.7 66v60.6h31.6v-60.6c57.4-3.4 114-25.4 159.7-66l42.9 42.8zm-42.9-87.5l-23.1-23.1c28.3-33.1 44-73.2 47.2-114.2h32.6c-3.2 49.3-22.2 97.8-56.7 137.3zm-45.5-260.7c22.2 26.8 34.9 58.9 37.9 91.8h-129.7l91.8-91.8zm-114.1 69.4v-129.7c32.9 3.1 65 15.7 91.8 37.9l-91.8 91.8zm-31.6 0l-91.8-91.8c26.8-22.2 58.9-34.9 91.8-37.9v129.7zm-22.4 22.4h-129.7c3.1-32.9 15.7-65 37.9-91.8l91.8 91.8zm0 31.6l-91.8 91.8c-22.2-26.8-34.9-58.9-37.9-91.8h129.7zm22.4 22.3v129.7c-32.8-3.1-65-15.7-91.8-37.9l91.8-91.8zm31.6 0l91.7 91.7c-26.8 22.2-58.9 34.9-91.7 37.9v-129.6zm22.3-22.3h129.7c-3.1 32.8-15.7 65-37.9 91.7l-91.8-91.7zm194.1-31.6H2058c-3.2-41-18.9-81.1-47.2-114.2l23.1-23.1c34.5 39.5 53.5 88 56.8 137.3zm-79.1-159.6l-23.1 23.1c-33.1-28.3-73.2-44-114.2-47.2v-32.6c49.3 3.2 97.8 22.1 137.3 56.7zm-168.9-56.8v32.6c-41 3.2-81.1 18.9-114.2 47.2l-23.1-23.1c39.5-34.5 88-53.4 137.3-56.7zm-159.6 79.1l23.1 23.1c-28.3 33.1-44 73.2-47.2 114.2h-32.6c3.2-49.3 22.1-97.8 56.7-137.3zm-56.8 168.9h32.6c3.2 41 18.9 81.1 47.2 114.2l-23.1 23.1c-34.5-39.5-53.4-88-56.7-137.3zm79.1 159.6l23.1-23.1c33.1 28.3 73.2 44 114.2 47.2v32.6c-49.3-3.2-97.8-22.2-137.3-56.7zm168.9 56.8v-32.6c41-3.2 81.1-18.9 114.2-47.2l23.1 23.1c-39.5 34.4-88 53.4-137.3 56.7z"/><path fill="#fff" d="M1629.1 1573l458.9-458.9-11.2-11.2-42.8 42.8c-45.7-40.6-102.2-62.6-159.7-66v-60.6h-31.6v60.6c-57.4 3.4-114 25.4-159.7 66l-42.8-42.8-22.3 22.3 42.8 42.8c-40.6 45.7-62.6 102.2-66 159.7H1534v31.6h60.6c3.4 57.4 25.4 114 66 159.7l-42.8 42.8 11.3 11.2zm99.5-121.9c-22.2-26.8-34.9-58.9-37.9-91.8h129.7l-91.8 91.8zm91.7-123.3h-129.7c3.1-32.9 15.7-65 37.9-91.8l91.8 91.8zm-69.4-114.1c26.8-22.2 58.9-34.9 91.8-37.9v129.7l-91.8-91.8zm123.4 91.7v-129.7c32.9 3.1 65 15.7 91.8 37.9l-91.8 91.8zm137.3-137.2l-23.1 23.1c-33.1-28.3-73.2-44-114.2-47.2v-32.6c49.3 3.2 97.8 22.1 137.3 56.7zm-168.9-56.8v32.6c-41 3.2-81.1 18.9-114.2 47.2l-23.1-23.1c39.5-34.5 88-53.4 137.3-56.7zm-159.6 79.1l23.1 23.1c-28.3 33.1-44 73.2-47.2 114.2h-32.6c3.2-49.3 22.1-97.8 56.7-137.3zm-56.8 168.9h32.6c3.2 41 18.9 81.1 47.2 114.2l-23.1 23.1c-34.5-39.5-53.4-88-56.7-137.3zM176.3 934.4h1394.8V1249H176.3z"/><path fill="#2A3035" d="M176.3 694.9h87.1v227.2h-87.1zM327.8 694.9h87.1v227.2h-87.1z"/><path fill="#28475B" d="M219.9 694.9h43.6v227.2h-43.6zM371.4 694.9H415v227.2h-43.6z"/><path fill="#2A3035" d="M176.3 1273.4h1555.5v227.2H176.3z"/><path fill="#CAE0EF" d="M176.4 1224.7h1394.8v24.3H176.4zM176.4 1028.2h1394.8v24.3H176.4z"/><path fill="#FF7300" d="M176.3 1249h1555.5v24.5H176.3zM176.3 909.9h1394.8v24.5H176.3z"/><path fill="#005CBF" d="M242.8 1091.7h97.9V1249h-97.9zM1085.2 1091.7h97.9V1249h-97.9zM184.5 934.4h97.9v64.1h-97.9zM1242.5 1091.7h97.9v64.1h-97.9zM398.1 1091.7H496v64.1h-97.9zM291.3 934.4h97.9v64.1h-97.9zM398.1 934.4H496v64.1h-97.9zM504.9 934.4h97.9v64.1h-97.9zM1359.4 934.4h97.9v64.1h-97.9zM1466.2 934.4h97.9v64.1h-97.9zM1145.8 934.4h97.9v64.1h-97.9zM1252.6 934.4h97.9v64.1h-97.9zM932.2 934.4h97.9v64.1h-97.9zM1039 934.4h97.9v64.1H1039zM825.4 934.4h97.9v64.1h-97.9zM611.7 934.4h97.9v64.1h-97.9zM718.6 934.4h97.9v64.1h-97.9zM2399.8 1286c-2.4 31.5-28.7 56.4-60.9 56.4-32.1 0-58.5-24.8-60.9-56.4h-.4c-2.4 31.5-28.7 56.4-60.9 56.4-32.1 0-58.5-24.8-60.9-56.4h-.4c-2.4 31.5-28.7 56.4-60.9 56.4-32.1 0-58.5-24.8-60.9-56.4h-.4c-2.4 31.5-28.7 56.4-60.9 56.4s-58.5-24.8-60.9-56.4h-.4c-2.4 31.5-28.7 56.4-60.9 56.4-32.1 0-58.5-24.8-60.9-56.4h-.4c-2.4 31.5-28.7 56.4-60.9 56.4-32.1 0-58.5-24.8-60.9-56.4h-.4c-2.4 31.5-28.7 56.4-60.9 56.4s-58.5-24.8-60.9-56.4h-.4c-2.4 31.5-28.7 56.4-60.9 56.4s-58.5-24.8-60.9-56.4h-.4c-2.4 31.5-28.7 56.4-60.9 56.4-32.1 0-58.5-24.8-60.9-56.4h-.4c-2.4 31.5-28.7 56.4-60.9 56.4-32.1 0-58.5-24.8-60.9-56.4h-.4c-2.4 31.5-28.7 56.4-60.9 56.4-32.1 0-58.5-24.8-60.9-56.4h-.4c-2.4 31.5-28.7 56.4-60.9 56.4s-58.5-24.8-60.9-56.4h-.4c-2.4 31.5-28.7 56.4-60.9 56.4-32.1 0-58.5-24.8-60.9-56.4h-.4c-2.4 31.5-28.7 56.4-60.9 56.4-32.1 0-58.5-24.8-60.9-56.4h-.4c-2.4 31.5-28.7 56.4-60.9 56.4-32.1 0-58.5-24.8-60.9-56.4h-.4c-2.4 31.5-28.7 56.4-60.9 56.4s-58.5-24.8-60.9-56.4c-2.4 31.5-28.7 56.4-60.9 56.4s-58.5-24.8-60.9-56.4h-.4c-2.4 31.5-28.7 56.4-60.9 56.4s-58.5-24.8-60.9-56.4h-.4c-2.4 31.5-28.7 56.4-60.9 56.4-32.1 0-58.5-24.8-60.9-56.4h-.4c-2.4 31.5-28.7 56.4-60.9 56.4-6.1 0-12-.9-17.6-2.6V1800h2400v-514h-.1z"/><path fill="#0059AA" d="M2400 1384.2c0-.5-.1-1-.1-1.5h-.4c-2.4 31-28.2 55.4-59.8 55.4-27.7 0-51-18.8-57.9-44.3v-9.6c0-.5-.1-1-.1-1.5h-.4c-.1 1.8-.4 3.7-.7 5.5-.3-1.8-.5-3.6-.7-5.5h-.4c-2.3 30.7-27.8 54.9-58.9 55.4-31.2-.5-56.6-24.7-58.9-55.4h-.4c-.1 1.8-.4 3.7-.7 5.5-.3-1.8-.5-3.6-.7-5.5h-.4c-2.3 30.7-27.8 54.9-58.9 55.4-31.2-.5-56.6-24.7-58.9-55.4h-.4c-.1 1.8-.4 3.7-.7 5.5-.3-1.8-.5-3.6-.7-5.5h-.4c-2.3 30.7-27.8 54.9-58.9 55.4-31.2-.5-56.6-24.7-58.9-55.4h-.4c-.1 1.8-.4 3.7-.7 5.5-.3-1.8-.5-3.6-.7-5.5h-.4c-2.3 30.7-27.8 54.9-58.9 55.4-31.2-.5-56.6-24.7-58.9-55.4h-.4c-.1 1.8-.4 3.7-.7 5.5-.3-1.8-.5-3.6-.7-5.5h-.4c-2.3 30.7-27.8 54.9-58.9 55.4-31.2-.5-56.6-24.7-58.9-55.4h-.4c-.1 1.8-.4 3.7-.7 5.5-.3-1.8-.5-3.6-.7-5.5h-.4c-2.3 30.7-27.8 54.9-58.9 55.4-31.2-.5-56.6-24.7-58.9-55.4h-.4c-.1 1.8-.4 3.7-.7 5.5-.3-1.8-.5-3.6-.7-5.5h-.4c-2.3 30.7-27.8 54.9-58.9 55.4-31.2-.5-56.6-24.7-58.9-55.4h-.4c-.1 1.8-.4 3.7-.7 5.5-.3-1.8-.5-3.6-.7-5.5h-.4c-2.3 30.7-27.8 54.9-58.9 55.4-31.2-.5-56.6-24.7-58.9-55.4h-.4c-.1 1.8-.4 3.7-.7 5.5-.3-1.8-.5-3.6-.7-5.5h-.4c-2.3 30.7-27.8 54.9-58.9 55.4-31.2-.5-56.6-24.7-58.9-55.4h-.4c-.1 1.8-.4 3.7-.7 5.5-.3-1.8-.5-3.6-.7-5.5h-.4c-2.3 30.7-27.8 54.9-58.9 55.4-31.2-.5-56.6-24.7-58.9-55.4h-.4c-.1 1.8-.4 3.7-.7 5.5-.3-1.8-.5-3.6-.7-5.5h-.4c-2.3 30.7-27.8 54.9-58.9 55.4-31.2-.5-56.6-24.7-58.9-55.4h-.4c-.1 1.8-.4 3.7-.7 5.5-.3-1.8-.5-3.6-.7-5.5h-.4c-2.3 30.7-27.8 54.9-58.9 55.4-31.2-.5-56.6-24.7-58.9-55.4h-.4c-.1 1.8-.4 3.7-.7 5.5-.3-1.8-.5-3.6-.7-5.5h-.4c-2.3 30.7-27.8 54.9-58.9 55.4-31.2-.5-56.6-24.7-58.9-55.4h-.4c-.1 1.8-.4 3.7-.7 5.5-.3-1.8-.5-3.6-.7-5.5h-.4c-2.3 30.7-27.8 54.9-58.9 55.4-31.2-.5-56.6-24.7-58.9-55.4h-.4c-.1 1.8-.4 3.7-.7 5.5-.3-1.8-.5-3.6-.7-5.5h-.4c-2.3 30.7-27.8 54.9-58.9 55.4-31.2-.5-56.6-24.7-58.9-55.4h-.4c-.1 1.8-.4 3.7-.7 5.5-.3-1.8-.5-3.6-.7-5.5h-.4c-2.3 30.7-27.8 54.9-58.9 55.4-31.2-.5-56.6-24.7-58.9-55.4H360c-.1 1.8-.4 3.7-.7 5.5-.3-1.8-.5-3.6-.7-5.5h-.4c-2.3 30.7-27.8 54.9-58.9 55.4-31.2-.5-56.6-24.7-58.9-55.4h-.4c-.1 1.8-.4 3.7-.7 5.5-.3-1.8-.5-3.6-.7-5.5h-.4c-2.3 30.7-27.8 54.9-58.9 55.4-31.2-.5-56.6-24.7-58.9-55.4h-.4c-.1 1.8-.4 3.7-.7 5.5-.3-1.8-.5-3.6-.7-5.5h-.2v9.7c-6.4 26.2-30.1 45.7-58.3 45.7-31.6 0-57.5-24.4-59.8-55.4H0v405.2h2400v-403.7z"/><path fill="#004D93" d="M2397.8 1474.5c-2.4 31.5-28.7 56.4-60.9 56.4-32.1 0-58.5-24.8-60.9-56.4h-.4c-2.4 31.5-28.7 56.4-60.9 56.4-32.1 0-58.5-24.8-60.9-56.4h-.4c-2.4 31.5-28.7 56.4-60.9 56.4-32.1 0-58.5-24.8-60.9-56.4h-.4c-2.4 31.5-28.7 56.4-60.9 56.4s-58.5-24.8-60.9-56.4h-.4c-2.4 31.5-28.7 56.4-60.9 56.4-32.1 0-58.5-24.8-60.9-56.4h-.4c-2.4 31.5-28.7 56.4-60.9 56.4-32.1 0-58.5-24.8-60.9-56.4h-.4c-2.4 31.5-28.7 56.4-60.9 56.4-32.1 0-58.5-24.8-60.9-56.4h-.4c-2.4 31.5-28.7 56.4-60.9 56.4-32.1 0-58.5-24.8-60.9-56.4h-.4c-2.4 31.5-28.7 56.4-60.9 56.4s-58.5-24.8-60.9-56.4h-.4c-2.4 31.5-28.7 56.4-60.9 56.4-32.1 0-58.5-24.8-60.9-56.4h-.4c-2.4 31.5-28.7 56.4-60.9 56.4s-58.5-24.8-60.9-56.4h-.4c-2.4 31.5-28.7 56.4-60.9 56.4-32.1 0-58.5-24.8-60.9-56.4h-.4c-2.4 31.5-28.7 56.4-60.9 56.4-32.1 0-58.5-24.8-60.9-56.4h-.4c-2.4 31.5-28.7 56.4-60.9 56.4-32.1 0-58.5-24.8-60.9-56.4h-.4c-2.4 31.5-28.7 56.4-60.9 56.4-32.1 0-58.5-24.8-60.9-56.4h-.4c-2.4 31.5-28.7 56.4-60.9 56.4s-58.5-24.8-60.9-56.4h-.4c-2.4 31.5-28.7 56.4-60.9 56.4-32.1 0-58.5-24.8-60.9-56.4h-.4c-2.4 31.5-28.7 56.4-60.9 56.4-32.1 0-58.5-24.8-60.9-56.4h-.4c-2.4 31.5-28.7 56.4-60.9 56.4s-58.5-24.8-60.9-56.4H76c-2.4 31.5-28.7 56.4-60.9 56.4-5.5 0-10.8-.7-15.9-2.1V1800h2398v-325.5h.6z"/><path fill="#5CC46D" d="M1.6 1799.6v-158.5c342.2-115.4 740.2-181.5 1164.8-181.5 436.8 0 845.3 69.9 1193.9 191.5v149l-2358.7-.5z"/><linearGradient id="c" gradientUnits="userSpaceOnUse" x1="1181.539" y1="1799.784" x2="1181.539" y2="1459.54"><stop offset="0" stop-color="#1C6C6D" stop-opacity=".8"/><stop offset=".214" stop-color="#2F866D" stop-opacity=".629"/><stop offset=".545" stop-color="#47A86D" stop-opacity=".364"/><stop offset=".819" stop-color="#57BC6D" stop-opacity=".145"/><stop offset="1" stop-color="#5CC46D" stop-opacity="0"/></linearGradient><path fill="url(#c)" d="M2.7 1799.4v-158.3c342-115.4 739.8-181.5 1164.3-181.5 436.6 0 844.9 69.9 1193.3 191.5v148.8l-2357.6-.5z"/><path fill="#38A038" d="M1452.8 725.7c0-4-2.8-7.3-6.6-8.1 3.7-.8 6.6-4.1 6.6-8.1 0-4.6-3.7-8.2-8.2-8.2-3.9 0-7.1 2.7-8 6.3-.9-3.6-4.1-6.3-8-6.3-3.6 0-6.6 2.3-7.7 5.4-1.1-3.2-4.2-5.4-7.7-5.4-3.9 0-7.1 2.7-8 6.3-.9-3.6-4.1-6.3-8-6.3-3.6 0-6.6 2.3-7.7 5.4-1.1-3.2-4.2-5.4-7.7-5.4-3.9 0-7.1 2.7-8 6.3-.9-3.6-4.1-6.3-8-6.3-3.6 0-6.6 2.3-7.7 5.4-1.1-3.2-4.2-5.4-7.7-5.4-3.9 0-7.1 2.7-8 6.3-.9-3.6-4.1-6.3-8-6.3-3.9 0-7.1 2.7-8 6.3-.9-3.6-4.1-6.3-8-6.3-3.9 0-7.1 2.7-8 6.3-.9-3.6-4.1-6.3-8-6.3-4.6 0-8.2 3.7-8.2 8.2 0 4 2.8 7.3 6.6 8.1-3.7.8-6.6 4.1-6.6 8.1 0 3.9 2.7 7.1 6.3 8-3.6.9-6.3 4.1-6.3 8s2.7 7.1 6.3 8c-3.6.9-6.3 4.1-6.3 8 0 4.6 3.7 8.2 8.2 8.2 3.9 0 7.1-2.7 8-6.3.9 3.6 4.1 6.3 8 6.3 3.9 0 7.1-2.7 8-6.3.9 3.6 4.1 6.3 8 6.3 3.9 0 7.1-2.7 8-6.3.9 3.6 4.1 6.3 8 6.3 3.6 0 6.6-2.3 7.7-5.4 1.1 3.2 4.2 5.4 7.7 5.4 3.9 0 7.1-2.7 8-6.3.9 3.6 4.1 6.3 8 6.3 3.6 0 6.6-2.3 7.7-5.4 1.1 3.2 4.2 5.4 7.7 5.4 3.9 0 7.1-2.7 8-6.3.9 3.6 4.1 6.3 8 6.3 3.6 0 6.6-2.3 7.7-5.4 1.1 3.2 4.2 5.4 7.7 5.4 3.9 0 7.1-2.7 8-6.3.9 3.6 4.1 6.3 8 6.3 4.6 0 8.2-3.7 8.2-8.2 0-3.9-2.7-7.1-6.3-8 3.6-.9 6.3-4.1 6.3-8s-2.7-7.1-6.3-8c3.6-.9 6.3-4.1 6.3-8zM1173.2 725.7c0-4-2.8-7.3-6.6-8.1 3.7-.8 6.6-4.1 6.6-8.1 0-4.6-3.7-8.2-8.2-8.2-3.9 0-7.1 2.7-8 6.3-.9-3.6-4.1-6.3-8-6.3-3.6 0-6.6 2.3-7.7 5.4-1.1-3.2-4.2-5.4-7.7-5.4-3.9 0-7.1 2.7-8 6.3-.9-3.6-4.1-6.3-8-6.3-3.6 0-6.6 2.3-7.7 5.4-1.1-3.2-4.2-5.4-7.7-5.4-3.9 0-7.1 2.7-8 6.3-.9-3.6-4.1-6.3-8-6.3-3.6 0-6.6 2.3-7.7 5.4-1.1-3.2-4.2-5.4-7.7-5.4-3.9 0-7.1 2.7-8 6.3-.9-3.6-4.1-6.3-8-6.3-3.9 0-7.1 2.7-8 6.3-.9-3.6-4.1-6.3-8-6.3-3.9 0-7.1 2.7-8 6.3-.9-3.6-4.1-6.3-8-6.3-4.6 0-8.2 3.7-8.2 8.2 0 4 2.8 7.3 6.6 8.1-3.7.8-6.6 4.1-6.6 8.1 0 3.9 2.7 7.1 6.3 8-3.6.9-6.3 4.1-6.3 8s2.7 7.1 6.3 8c-3.6.9-6.3 4.1-6.3 8 0 4.6 3.7 8.2 8.2 8.2 3.9 0 7.1-2.7 8-6.3.9 3.6 4.1 6.3 8 6.3 3.9 0 7.1-2.7 8-6.3.9 3.6 4.1 6.3 8 6.3 3.9 0 7.1-2.7 8-6.3.9 3.6 4.1 6.3 8 6.3 3.6 0 6.6-2.3 7.7-5.4 1.1 3.2 4.2 5.4 7.7 5.4 3.9 0 7.1-2.7 8-6.3.9 3.6 4.1 6.3 8 6.3 3.6 0 6.6-2.3 7.7-5.4 1.1 3.2 4.2 5.4 7.7 5.4 3.9 0 7.1-2.7 8-6.3.9 3.6 4.1 6.3 8 6.3 3.6 0 6.6-2.3 7.7-5.4 1.1 3.2 4.2 5.4 7.7 5.4 3.9 0 7.1-2.7 8-6.3.9 3.6 4.1 6.3 8 6.3 4.6 0 8.2-3.7 8.2-8.2 0-3.9-2.7-7.1-6.3-8 3.6-.9 6.3-4.1 6.3-8s-2.7-7.1-6.3-8c3.7-.9 6.3-4.1 6.3-8zM832.8 725.6c0-3.9-2.7-7.1-6.3-8 3.6-.9 6.3-4.1 6.3-8 0-4.6-3.7-8.2-8.2-8.2-3.9 0-7.1 2.7-8 6.3-.9-3.6-4.1-6.3-8-6.3-3.4 0-6.4 2.1-7.6 5.1-1.2-3-4.2-5.1-7.6-5.1-3.9 0-7.1 2.7-8 6.3-.9-3.6-4.1-6.3-8-6.3-3.9 0-7.1 2.7-8 6.3-.9-3.6-4.1-6.3-8-6.3-4.6 0-8.2 3.7-8.2 8.2 0 4 2.8 7.3 6.6 8.1-3.7.8-6.6 4.1-6.6 8.1 0 3.9 2.7 7.1 6.3 8-3.6.9-6.3 4.1-6.3 8s2.7 7.1 6.3 8c-3.6.9-6.3 4.1-6.3 8 0 4.6 3.7 8.2 8.2 8.2 3.9 0 7.1-2.7 8-6.3.9 3.6 4.1 6.3 8 6.3 3.9 0 7.1-2.7 8-6.3.9 3.6 4.1 6.3 8 6.3 3.4 0 6.4-2.1 7.6-5.1 1.2 3 4.2 5.1 7.6 5.1 3.9 0 7.1-2.7 8-6.3.9 3.6 4.1 6.3 8 6.3 4.6 0 8.2-3.7 8.2-8.2 0-4-2.8-7.3-6.6-8.1 3.7-.8 6.6-4.1 6.6-8.1 0-3.9-2.7-7.1-6.3-8 3.6-.9 6.3-4.2 6.3-8zM653.2 725.6c0-3.9-2.7-7.1-6.3-8 3.6-.9 6.3-4.1 6.3-8 0-4.6-3.7-8.2-8.2-8.2-3.9 0-7.1 2.7-8 6.3-.9-3.6-4.1-6.3-8-6.3-3.4 0-6.4 2.1-7.6 5.1-1.2-3-4.2-5.1-7.6-5.1-3.9 0-7.1 2.7-8 6.3-.9-3.6-4.1-6.3-8-6.3-3.9 0-7.1 2.7-8 6.3-.9-3.6-4.1-6.3-8-6.3-4.6 0-8.2 3.7-8.2 8.2 0 4 2.8 7.3 6.6 8.1-3.7.8-6.6 4.1-6.6 8.1 0 3.9 2.7 7.1 6.3 8-3.6.9-6.3 4.1-6.3 8s2.7 7.1 6.3 8c-3.6.9-6.3 4.1-6.3 8 0 4.6 3.7 8.2 8.2 8.2 3.9 0 7.1-2.7 8-6.3.9 3.6 4.1 6.3 8 6.3 3.9 0 7.1-2.7 8-6.3.9 3.6 4.1 6.3 8 6.3 3.4 0 6.4-2.1 7.6-5.1 1.2 3 4.2 5.1 7.6 5.1 3.9 0 7.1-2.7 8-6.3.9 3.6 4.1 6.3 8 6.3 4.6 0 8.2-3.7 8.2-8.2 0-4-2.8-7.3-6.6-8.1 3.7-.8 6.6-4.1 6.6-8.1 0-3.9-2.7-7.1-6.3-8 3.6-.9 6.3-4.2 6.3-8z"/><path fill="#005CBF" d="M1157.8 370h-246l-12.4-23.8h270.8z"/><ellipse fill="#fff" cx="1035.2" cy="570.3" rx="12.5" ry="9.6"/><ellipse fill="#fff" cx="964.2" cy="570.3" rx="12.5" ry="9.6"/><path fill="#FFD6BB" d="M1318.3 559.1c0-.7-3.1-1.3-6.9-1.3s-6.9.6-6.9 1.3l-.1 19h13.9v-19zM1247.1 559.1c0-.7-3.1-1.3-6.9-1.3-3.8 0-6.9.6-6.9 1.3l-.1 19h13.9v-19z"/><circle opacity=".5" fill="#EAEAEA" cx="371.4" cy="593.8" r="48.2"/><circle opacity=".5" fill="#EAEAEA" cx="219.9" cy="433.6" r="104.4"/><circle opacity=".5" fill="#EAEAEA" cx="389.2" cy="314.5" r="53.7"/><circle opacity=".5" fill="#EAEAEA" cx="274.1" cy="199.4" r="27.2"/><path fill="#50B55C" d="M2401 1586.4c-112.6-17.4-227.7-26.5-344.7-26.5-363.1 0-707.3 84.8-1015.7 240.1H2401v-213.6z"/></svg>